<svg width="64" height="64" viewBox="0 0 64 64" fill="none" xmlns="http://www.w3.org/2000/svg">
  <rect x="4" y="4" width="56" height="56" rx="14" fill="#F8F8F4" stroke="#D9E1DC" stroke-width="2"/>
  <path d="M15 14V49" stroke="#17324D" stroke-width="3" stroke-linecap="round"/>
  <path d="M14 48H49" stroke="#17324D" stroke-width="3" stroke-linecap="round"/>
  <path d="M16 47C21 43 25 38 29 30C32 24 37 19 49 14" stroke="#2B7FFF" stroke-width="3" stroke-linecap="round"/>
  <path d="M16 18C25 18 32 19 38 23C43 26 47 33 49 47" stroke="#51B86B" stroke-width="3" stroke-linecap="round"/>
  <path d="M16 34C22 32 27 29 32 24C37 20 42 16 48 15" stroke="#E63946" stroke-width="3" stroke-linecap="round"/>
  <path d="M16 28C22 26 28 22 34 18C39 15 44 13 49 13" stroke="#FB8500" stroke-width="3" stroke-linecap="round"/>
  <path d="M16 48C25 47 32 45 38 40C43 35 47 27 49 15" stroke="#9B3ECB" stroke-width="3" stroke-linecap="round"/>
</svg>
