<svg width="760" height="180" viewBox="0 0 760 180" fill="none" xmlns="http://www.w3.org/2000/svg">
  <rect width="760" height="180" rx="28" fill="#F8F8F4"/>
  <g transform="translate(30 22)">
    <rect x="0" y="0" width="136" height="136" rx="28" fill="#F8F8F4" stroke="#D9E1DC" stroke-width="5"/>
    <path d="M24 26V116" stroke="#17324D" stroke-width="6.5" stroke-linecap="round"/>
    <path d="M22 114H112" stroke="#17324D" stroke-width="6.5" stroke-linecap="round"/>
    <path d="M26 110C39 101 50 88 60 69C69 53 81 39 112 26" stroke="#2B7FFF" stroke-width="6.5" stroke-linecap="round"/>
    <path d="M26 33C49 33 68 37 82 46C96 55 107 72 112 111" stroke="#51B86B" stroke-width="6.5" stroke-linecap="round"/>
    <path d="M26 78C41 74 54 66 67 54C80 42 92 33 110 30" stroke="#E63946" stroke-width="6.5" stroke-linecap="round"/>
    <path d="M26 62C43 58 57 49 72 37C84 28 97 24 112 24" stroke="#FB8500" stroke-width="6.5" stroke-linecap="round"/>
    <path d="M26 113C48 112 67 107 82 94C97 80 105 62 112 30" stroke="#9B3ECB" stroke-width="6.5" stroke-linecap="round"/>
  </g>
  <g fill="#17324D">
    <text x="196" y="60" font-family="'Avenir Next', 'Segoe UI', Arial, sans-serif" font-size="16" font-weight="700" letter-spacing="3.4">SYSTEMS SIMULATION EXPLORER</text>
    <text x="192" y="132" font-family="'Avenir Next', 'Segoe UI', Arial, sans-serif" font-size="86" font-weight="800" letter-spacing="-2">World3</text>
  </g>
</svg>
