<?xml version="1.0" encoding="UTF-8"?>
<svg xmlns="http://www.w3.org/2000/svg" width="1000" height="600" viewBox="0 0 1000 600" role="img" aria-labelledby="title desc">
  <title id="title">World3 browser-native simulation plot</title>
  <desc id="desc">Normalized key simulation variables from 1900 to 2100.</desc>
  <rect width="1000" height="600" fill="#ffffff" />
  <text x="72" y="28" font-size="24" font-weight="700" fill="#111827">World3 Simulation — Key Variables</text>
  <text x="72" y="48" font-size="14" fill="#4b5563">1900-2100 • dt 0.50</text>
  <rect x="72" y="48" width="888" height="504" fill="#f8fafc" stroke="#cbd5e1" />
  <line x1="72" y1="48" x2="960" y2="48" stroke="#e5e7eb" stroke-width="1" /><text x="18" y="52" font-size="12" fill="#6b7280">1.00</text><line x1="72" y1="174" x2="960" y2="174" stroke="#e5e7eb" stroke-width="1" /><text x="18" y="178" font-size="12" fill="#6b7280">0.75</text><line x1="72" y1="300" x2="960" y2="300" stroke="#e5e7eb" stroke-width="1" /><text x="18" y="304" font-size="12" fill="#6b7280">0.50</text><line x1="72" y1="426" x2="960" y2="426" stroke="#e5e7eb" stroke-width="1" /><text x="18" y="430" font-size="12" fill="#6b7280">0.25</text><line x1="72" y1="552" x2="960" y2="552" stroke="#e5e7eb" stroke-width="1" /><text x="18" y="556" font-size="12" fill="#6b7280">0.00</text>
  <line x1="72" y1="48" x2="72" y2="552" stroke="#e5e7eb" stroke-width="1" /><text x="72" y="584" text-anchor="middle" font-size="12" fill="#6b7280">1900</text><line x1="294" y1="48" x2="294" y2="552" stroke="#e5e7eb" stroke-width="1" /><text x="294" y="584" text-anchor="middle" font-size="12" fill="#6b7280">1950</text><line x1="516" y1="48" x2="516" y2="552" stroke="#e5e7eb" stroke-width="1" /><text x="516" y="584" text-anchor="middle" font-size="12" fill="#6b7280">2000</text><line x1="738" y1="48" x2="738" y2="552" stroke="#e5e7eb" stroke-width="1" /><text x="738" y="584" text-anchor="middle" font-size="12" fill="#6b7280">2050</text><line x1="960" y1="48" x2="960" y2="552" stroke="#e5e7eb" stroke-width="1" /><text x="960" y="584" text-anchor="middle" font-size="12" fill="#6b7280">2100</text>
  <line x1="72" y1="552" x2="960" y2="552" stroke="#64748b" stroke-width="1.5" />
  <line x1="72" y1="48" x2="72" y2="552" stroke="#64748b" stroke-width="1.5" />
  <path d="M 72.00 552.00 L 74.22 551.73 L 76.44 551.38 L 78.66 550.97 L 80.88 550.51 L 83.10 550.01 L 85.32 549.49 L 87.54 548.94 L 89.76 548.38 L 91.98 547.81 L 94.20 547.24 L 96.42 546.66 L 98.64 546.08 L 100.86 545.50 L 103.08 544.92 L 105.30 544.34 L 107.52 543.76 L 109.74 543.18 L 111.96 542.61 L 114.18 542.03 L 116.40 541.45 L 118.62 540.87 L 120.84 540.30 L 123.06 539.72 L 125.28 539.14 L 127.50 538.57 L 129.72 537.99 L 131.94 537.41 L 134.16 536.83 L 136.38 536.25 L 138.60 535.67 L 140.82 535.08 L 143.04 534.50 L 145.26 533.91 L 147.48 533.32 L 149.70 532.72 L 151.92 532.12 L 154.14 531.52 L 156.36 530.92 L 158.58 530.31 L 160.80 529.70 L 163.02 529.08 L 165.24 528.47 L 167.46 527.84 L 169.68 527.22 L 171.90 526.58 L 174.12 525.95 L 176.34 525.31 L 178.56 524.66 L 180.78 524.01 L 183.00 523.36 L 185.22 522.69 L 187.44 522.03 L 189.66 521.36 L 191.88 520.68 L 194.10 519.99 L 196.32 519.30 L 198.54 518.60 L 200.76 517.90 L 202.98 517.19 L 205.20 516.47 L 207.42 515.74 L 209.64 515.01 L 211.86 514.27 L 214.08 513.52 L 216.30 512.76 L 218.52 511.99 L 220.74 511.21 L 222.96 510.43 L 225.18 509.63 L 227.40 508.83 L 229.62 508.02 L 231.84 507.20 L 234.06 506.36 L 236.28 505.52 L 238.50 504.67 L 240.72 503.81 L 242.94 502.93 L 245.16 502.05 L 247.38 501.15 L 249.60 500.24 L 251.82 499.33 L 254.04 497.63 L 256.26 495.96 L 258.48 494.29 L 260.70 492.62 L 262.92 490.96 L 265.14 489.29 L 267.36 487.62 L 269.58 485.94 L 271.80 484.25 L 274.02 482.56 L 276.24 480.85 L 278.46 479.14 L 280.68 477.41 L 282.90 475.67 L 285.12 473.92 L 287.34 472.16 L 289.56 470.38 L 291.78 468.59 L 294.00 466.79 L 296.22 464.97 L 298.44 463.14 L 300.66 461.30 L 302.88 459.44 L 305.10 457.57 L 307.32 455.68 L 309.54 453.77 L 311.76 451.86 L 313.98 449.92 L 316.20 447.97 L 318.42 446.00 L 320.64 444.02 L 322.86 442.01 L 325.08 439.99 L 327.30 437.95 L 329.52 435.90 L 331.74 433.82 L 333.96 431.72 L 336.18 429.61 L 338.40 427.48 L 340.62 425.33 L 342.84 423.16 L 345.06 420.97 L 347.28 418.76 L 349.50 416.53 L 351.72 414.29 L 353.94 412.02 L 356.16 409.74 L 358.38 407.42 L 360.60 405.08 L 362.82 402.72 L 365.04 400.34 L 367.26 397.94 L 369.48 395.52 L 371.70 393.09 L 373.92 390.63 L 376.14 388.15 L 378.36 385.66 L 380.58 383.14 L 382.80 380.60 L 385.02 378.04 L 387.24 375.45 L 389.46 372.85 L 391.68 370.22 L 393.90 367.58 L 396.12 364.91 L 398.34 362.23 L 400.56 359.53 L 402.78 356.82 L 405.00 354.09 L 407.22 351.34 L 409.44 348.57 L 411.66 345.78 L 413.88 342.98 L 416.10 340.16 L 418.32 337.32 L 420.54 334.46 L 422.76 331.58 L 424.98 328.69 L 427.20 325.77 L 429.42 322.85 L 431.64 319.91 L 433.86 316.96 L 436.08 314.00 L 438.30 311.02 L 440.52 308.04 L 442.74 305.04 L 444.96 302.04 L 447.18 299.03 L 449.40 296.01 L 451.62 293.00 L 453.84 289.98 L 456.06 286.97 L 458.28 283.96 L 460.50 280.95 L 462.72 277.95 L 464.94 274.96 L 467.16 271.97 L 469.38 268.99 L 471.60 266.01 L 473.82 263.06 L 476.04 260.10 L 478.26 257.15 L 480.48 254.20 L 482.70 251.26 L 484.92 248.31 L 487.14 245.38 L 489.36 242.45 L 491.58 239.53 L 493.80 236.61 L 496.02 233.71 L 498.24 230.82 L 500.46 227.94 L 502.68 225.07 L 504.90 222.20 L 507.12 219.32 L 509.34 216.43 L 511.56 213.53 L 513.78 210.63 L 516.00 207.73 L 518.22 204.82 L 520.44 201.91 L 522.66 199.01 L 524.88 196.13 L 527.10 193.27 L 529.32 190.42 L 531.54 187.59 L 533.76 184.78 L 535.98 181.98 L 538.20 179.19 L 540.42 176.42 L 542.64 173.66 L 544.86 170.91 L 547.08 168.15 L 549.30 165.39 L 551.52 162.62 L 553.74 159.85 L 555.96 157.07 L 558.18 154.29 L 560.40 151.50 L 562.62 148.71 L 564.84 145.91 L 567.06 143.11 L 569.28 140.30 L 571.50 137.49 L 573.72 134.69 L 575.94 131.90 L 578.16 129.13 L 580.38 126.38 L 582.60 123.64 L 584.82 120.94 L 587.04 118.26 L 589.26 115.61 L 591.48 112.99 L 593.70 110.40 L 595.92 107.85 L 598.14 105.32 L 600.36 102.82 L 602.58 100.35 L 604.80 97.91 L 607.02 95.50 L 609.24 93.13 L 611.46 90.79 L 613.68 88.47 L 615.90 86.19 L 618.12 83.94 L 620.34 81.73 L 622.56 79.54 L 624.78 77.39 L 627.00 75.28 L 629.22 73.19 L 631.44 71.18 L 633.66 69.25 L 635.88 67.40 L 638.10 65.61 L 640.32 63.89 L 642.54 62.23 L 644.76 60.63 L 646.98 59.08 L 649.20 57.59 L 651.42 56.20 L 653.64 54.89 L 655.86 53.64 L 658.08 52.47 L 660.30 51.35 L 662.52 50.30 L 664.74 49.31 L 666.96 48.43 L 669.18 48.00 L 671.40 48.27 L 673.62 48.92 L 675.84 49.79 L 678.06 50.93 L 680.28 52.39 L 682.50 54.15 L 684.72 56.22 L 686.94 58.67 L 689.16 61.49 L 691.38 64.69 L 693.60 68.25 L 695.82 72.13 L 698.04 76.31 L 700.26 80.92 L 702.48 85.90 L 704.70 91.82 L 706.92 98.56 L 709.14 106.09 L 711.36 114.25 L 713.58 122.92 L 715.80 132.03 L 718.02 141.66 L 720.24 151.67 L 722.46 161.95 L 724.68 172.40 L 726.90 182.95 L 729.12 193.54 L 731.34 204.16 L 733.56 214.70 L 735.78 224.90 L 738.00 234.79 L 740.22 244.36 L 742.44 253.64 L 744.66 262.64 L 746.88 271.36 L 749.10 279.81 L 751.32 288.01 L 753.54 295.97 L 755.76 303.69 L 757.98 311.18 L 760.20 318.45 L 762.42 325.49 L 764.64 332.32 L 766.86 338.94 L 769.08 345.36 L 771.30 351.59 L 773.52 357.63 L 775.74 363.49 L 777.96 369.18 L 780.18 374.69 L 782.40 380.04 L 784.62 385.24 L 786.84 390.28 L 789.06 395.17 L 791.28 399.93 L 793.50 404.53 L 795.72 408.89 L 797.94 413.01 L 800.16 416.90 L 802.38 420.58 L 804.60 424.04 L 806.82 427.31 L 809.04 430.38 L 811.26 433.26 L 813.48 435.96 L 815.70 438.47 L 817.92 440.82 L 820.14 443.00 L 822.36 445.02 L 824.58 446.88 L 826.80 448.59 L 829.02 450.18 L 831.24 451.66 L 833.46 453.03 L 835.68 454.29 L 837.90 455.46 L 840.12 456.53 L 842.34 457.51 L 844.56 458.40 L 846.78 459.21 L 849.00 459.93 L 851.22 460.58 L 853.44 461.15 L 855.66 461.65 L 857.88 462.09 L 860.10 462.48 L 862.32 462.82 L 864.54 463.12 L 866.76 463.38 L 868.98 463.60 L 871.20 463.80 L 873.42 463.97 L 875.64 464.11 L 877.86 464.24 L 880.08 464.33 L 882.30 464.42 L 884.52 464.48 L 886.74 464.55 L 888.96 464.62 L 891.18 464.71 L 893.40 464.79 L 895.62 464.88 L 897.84 464.97 L 900.06 465.06 L 902.28 465.15 L 904.50 465.24 L 906.72 465.33 L 908.94 465.42 L 911.16 465.51 L 913.38 465.60 L 915.60 465.70 L 917.82 465.79 L 920.04 465.89 L 922.26 465.98 L 924.48 466.07 L 926.70 466.16 L 928.92 466.24 L 931.14 466.33 L 933.36 466.42 L 935.58 466.51 L 937.80 466.60 L 940.02 466.69 L 942.24 466.79 L 944.46 466.88 L 946.68 466.98 L 948.90 467.08 L 951.12 467.19 L 953.34 467.31 L 955.56 467.43 L 957.78 467.57 L 960.00 467.72" fill="none" stroke="#2196F3" stroke-width="3" stroke-linejoin="round" stroke-linecap="round" />
  <path d="M 72.00 48.00 L 74.22 48.07 L 76.44 48.14 L 78.66 48.22 L 80.88 48.29 L 83.10 48.37 L 85.32 48.45 L 87.54 48.53 L 89.76 48.61 L 91.98 48.69 L 94.20 48.78 L 96.42 48.86 L 98.64 48.95 L 100.86 49.04 L 103.08 49.13 L 105.30 49.22 L 107.52 49.32 L 109.74 49.41 L 111.96 49.51 L 114.18 49.61 L 116.40 49.71 L 118.62 49.81 L 120.84 49.92 L 123.06 50.02 L 125.28 50.13 L 127.50 50.24 L 129.72 50.35 L 131.94 50.47 L 134.16 50.58 L 136.38 50.70 L 138.60 50.82 L 140.82 50.94 L 143.04 51.06 L 145.26 51.19 L 147.48 51.32 L 149.70 51.45 L 151.92 51.58 L 154.14 51.71 L 156.36 51.85 L 158.58 51.99 L 160.80 52.13 L 163.02 52.27 L 165.24 52.42 L 167.46 52.57 L 169.68 52.72 L 171.90 52.87 L 174.12 53.03 L 176.34 53.19 L 178.56 53.35 L 180.78 53.52 L 183.00 53.69 L 185.22 53.86 L 187.44 54.03 L 189.66 54.21 L 191.88 54.39 L 194.10 54.57 L 196.32 54.76 L 198.54 54.95 L 200.76 55.14 L 202.98 55.33 L 205.20 55.53 L 207.42 55.74 L 209.64 55.94 L 211.86 56.15 L 214.08 56.37 L 216.30 56.59 L 218.52 56.81 L 220.74 57.03 L 222.96 57.26 L 225.18 57.50 L 227.40 57.74 L 229.62 57.98 L 231.84 58.22 L 234.06 58.48 L 236.28 58.73 L 238.50 58.99 L 240.72 59.26 L 242.94 59.53 L 245.16 59.80 L 247.38 60.08 L 249.60 60.36 L 251.82 60.65 L 254.04 60.95 L 256.26 61.25 L 258.48 61.55 L 260.70 61.86 L 262.92 62.18 L 265.14 62.50 L 267.36 62.83 L 269.58 63.16 L 271.80 63.50 L 274.02 63.84 L 276.24 64.20 L 278.46 64.55 L 280.68 64.92 L 282.90 65.29 L 285.12 65.66 L 287.34 66.05 L 289.56 66.44 L 291.78 66.83 L 294.00 67.24 L 296.22 67.65 L 298.44 68.06 L 300.66 68.49 L 302.88 68.92 L 305.10 69.36 L 307.32 69.81 L 309.54 70.26 L 311.76 70.73 L 313.98 71.20 L 316.20 71.68 L 318.42 72.16 L 320.64 72.66 L 322.86 73.16 L 325.08 73.68 L 327.30 74.20 L 329.52 74.73 L 331.74 75.27 L 333.96 75.82 L 336.18 76.38 L 338.40 76.95 L 340.62 77.53 L 342.84 78.12 L 345.06 78.71 L 347.28 79.32 L 349.50 79.94 L 351.72 80.57 L 353.94 81.21 L 356.16 81.87 L 358.38 82.53 L 360.60 83.21 L 362.82 83.89 L 365.04 84.59 L 367.26 85.30 L 369.48 86.02 L 371.70 86.75 L 373.92 87.50 L 376.14 88.26 L 378.36 89.03 L 380.58 89.82 L 382.80 90.62 L 385.02 91.43 L 387.24 92.25 L 389.46 93.09 L 391.68 93.95 L 393.90 94.82 L 396.12 95.72 L 398.34 96.64 L 400.56 97.58 L 402.78 98.54 L 405.00 99.53 L 407.22 100.54 L 409.44 101.58 L 411.66 102.64 L 413.88 103.72 L 416.10 104.83 L 418.32 105.96 L 420.54 107.12 L 422.76 108.31 L 424.98 109.52 L 427.20 110.76 L 429.42 112.03 L 431.64 113.32 L 433.86 114.64 L 436.08 116.00 L 438.30 117.38 L 440.52 118.79 L 442.74 120.23 L 444.96 121.70 L 447.18 123.20 L 449.40 124.74 L 451.62 126.31 L 453.84 127.91 L 456.06 129.54 L 458.28 131.21 L 460.50 132.91 L 462.72 134.65 L 464.94 136.42 L 467.16 138.23 L 469.38 140.08 L 471.60 141.96 L 473.82 143.88 L 476.04 145.84 L 478.26 147.84 L 480.48 149.88 L 482.70 151.96 L 484.92 154.09 L 487.14 156.25 L 489.36 158.46 L 491.58 160.71 L 493.80 163.00 L 496.02 165.34 L 498.24 167.72 L 500.46 170.15 L 502.68 172.63 L 504.90 175.15 L 507.12 177.72 L 509.34 180.34 L 511.56 183.01 L 513.78 185.72 L 516.00 188.49 L 518.22 191.30 L 520.44 194.16 L 522.66 197.08 L 524.88 200.04 L 527.10 203.06 L 529.32 206.13 L 531.54 209.26 L 533.76 212.43 L 535.98 215.66 L 538.20 218.95 L 540.42 222.29 L 542.64 225.68 L 544.86 229.13 L 547.08 232.64 L 549.30 236.21 L 551.52 239.83 L 553.74 243.51 L 555.96 247.25 L 558.18 251.05 L 560.40 254.90 L 562.62 258.82 L 564.84 262.80 L 567.06 266.84 L 569.28 270.94 L 571.50 275.10 L 573.72 279.32 L 575.94 283.61 L 578.16 287.96 L 580.38 292.36 L 582.60 296.84 L 584.82 301.37 L 587.04 305.97 L 589.26 310.64 L 591.48 315.36 L 593.70 320.16 L 595.92 325.01 L 598.14 329.94 L 600.36 334.93 L 602.58 339.98 L 604.80 345.11 L 607.02 350.30 L 609.24 355.56 L 611.46 360.89 L 613.68 366.28 L 615.90 371.75 L 618.12 377.28 L 620.34 382.89 L 622.56 388.56 L 624.78 394.31 L 627.00 400.12 L 629.22 406.00 L 631.44 411.93 L 633.66 417.87 L 635.88 423.84 L 638.10 429.82 L 640.32 435.82 L 642.54 441.84 L 644.76 447.87 L 646.98 453.91 L 649.20 459.96 L 651.42 465.95 L 653.64 471.90 L 655.86 477.79 L 658.08 483.63 L 660.30 489.40 L 662.52 495.12 L 664.74 500.76 L 666.96 506.34 L 669.18 511.45 L 671.40 515.83 L 673.62 519.58 L 675.84 522.77 L 678.06 525.48 L 680.28 527.78 L 682.50 529.73 L 684.72 531.43 L 686.94 532.99 L 689.16 534.44 L 691.38 535.76 L 693.60 536.97 L 695.82 538.09 L 698.04 539.11 L 700.26 540.05 L 702.48 540.90 L 704.70 541.69 L 706.92 542.41 L 709.14 543.07 L 711.36 543.68 L 713.58 544.24 L 715.80 544.75 L 718.02 545.23 L 720.24 545.67 L 722.46 546.07 L 724.68 546.44 L 726.90 546.79 L 729.12 547.11 L 731.34 547.40 L 733.56 547.68 L 735.78 547.93 L 738.00 548.17 L 740.22 548.39 L 742.44 548.60 L 744.66 548.79 L 746.88 548.97 L 749.10 549.14 L 751.32 549.29 L 753.54 549.44 L 755.76 549.58 L 757.98 549.71 L 760.20 549.83 L 762.42 549.94 L 764.64 550.05 L 766.86 550.15 L 769.08 550.25 L 771.30 550.34 L 773.52 550.42 L 775.74 550.50 L 777.96 550.58 L 780.18 550.65 L 782.40 550.71 L 784.62 550.78 L 786.84 550.84 L 789.06 550.90 L 791.28 550.95 L 793.50 551.00 L 795.72 551.05 L 797.94 551.10 L 800.16 551.14 L 802.38 551.18 L 804.60 551.22 L 806.82 551.26 L 809.04 551.30 L 811.26 551.33 L 813.48 551.36 L 815.70 551.39 L 817.92 551.42 L 820.14 551.45 L 822.36 551.47 L 824.58 551.50 L 826.80 551.52 L 829.02 551.54 L 831.24 551.56 L 833.46 551.58 L 835.68 551.60 L 837.90 551.62 L 840.12 551.64 L 842.34 551.65 L 844.56 551.67 L 846.78 551.68 L 849.00 551.70 L 851.22 551.71 L 853.44 551.72 L 855.66 551.74 L 857.88 551.75 L 860.10 551.76 L 862.32 551.77 L 864.54 551.78 L 866.76 551.79 L 868.98 551.80 L 871.20 551.81 L 873.42 551.82 L 875.64 551.83 L 877.86 551.84 L 880.08 551.84 L 882.30 551.85 L 884.52 551.86 L 886.74 551.87 L 888.96 551.87 L 891.18 551.88 L 893.40 551.89 L 895.62 551.89 L 897.84 551.90 L 900.06 551.90 L 902.28 551.91 L 904.50 551.91 L 906.72 551.92 L 908.94 551.92 L 911.16 551.93 L 913.38 551.93 L 915.60 551.94 L 917.82 551.94 L 920.04 551.95 L 922.26 551.95 L 924.48 551.95 L 926.70 551.96 L 928.92 551.96 L 931.14 551.96 L 933.36 551.97 L 935.58 551.97 L 937.80 551.97 L 940.02 551.98 L 942.24 551.98 L 944.46 551.98 L 946.68 551.99 L 948.90 551.99 L 951.12 551.99 L 953.34 551.99 L 955.56 552.00 L 957.78 552.00 L 960.00 552.00" fill="none" stroke="#4CAF50" stroke-width="3" stroke-linejoin="round" stroke-linecap="round" />
  <path d="M 72.00 505.15 L 74.22 505.12 L 76.44 504.08 L 78.66 503.13 L 80.88 502.23 L 83.10 501.38 L 85.32 500.56 L 87.54 499.76 L 89.76 498.98 L 91.98 498.20 L 94.20 497.46 L 96.42 496.72 L 98.64 495.99 L 100.86 495.25 L 103.08 494.50 L 105.30 493.75 L 107.52 493.00 L 109.74 492.24 L 111.96 491.47 L 114.18 490.69 L 116.40 489.90 L 118.62 489.11 L 120.84 488.31 L 123.06 487.49 L 125.28 486.67 L 127.50 485.83 L 129.72 484.99 L 131.94 484.13 L 134.16 483.26 L 136.38 482.38 L 138.60 481.48 L 140.82 480.58 L 143.04 479.66 L 145.26 478.72 L 147.48 477.78 L 149.70 476.82 L 151.92 475.84 L 154.14 474.85 L 156.36 473.85 L 158.58 472.84 L 160.80 471.81 L 163.02 470.76 L 165.24 469.70 L 167.46 468.63 L 169.68 467.54 L 171.90 466.44 L 174.12 465.32 L 176.34 464.19 L 178.56 463.04 L 180.78 461.87 L 183.00 460.69 L 185.22 459.50 L 187.44 458.29 L 189.66 457.06 L 191.88 455.81 L 194.10 454.55 L 196.32 453.28 L 198.54 451.98 L 200.76 450.67 L 202.98 449.35 L 205.20 448.01 L 207.42 446.65 L 209.64 445.27 L 211.86 443.88 L 214.08 442.47 L 216.30 441.05 L 218.52 439.60 L 220.74 438.14 L 222.96 436.67 L 225.18 435.17 L 227.40 433.66 L 229.62 432.13 L 231.84 430.59 L 234.06 429.02 L 236.28 427.44 L 238.50 425.84 L 240.72 424.23 L 242.94 422.59 L 245.16 420.94 L 247.38 419.27 L 249.60 417.58 L 251.82 415.88 L 254.04 414.76 L 256.26 413.62 L 258.48 412.46 L 260.70 411.28 L 262.92 410.08 L 265.14 408.87 L 267.36 407.65 L 269.58 406.41 L 271.80 405.16 L 274.02 403.90 L 276.24 402.62 L 278.46 401.34 L 280.68 400.04 L 282.90 398.73 L 285.12 397.41 L 287.34 396.09 L 289.56 394.75 L 291.78 393.39 L 294.00 392.03 L 296.22 390.66 L 298.44 389.28 L 300.66 387.88 L 302.88 386.47 L 305.10 385.06 L 307.32 383.63 L 309.54 382.19 L 311.76 380.74 L 313.98 379.27 L 316.20 377.80 L 318.42 376.31 L 320.64 374.81 L 322.86 373.29 L 325.08 371.77 L 327.30 370.23 L 329.52 368.68 L 331.74 367.12 L 333.96 365.54 L 336.18 363.96 L 338.40 362.36 L 340.62 360.75 L 342.84 359.14 L 345.06 357.51 L 347.28 355.87 L 349.50 354.21 L 351.72 352.55 L 353.94 350.88 L 356.16 349.20 L 358.38 347.51 L 360.60 345.82 L 362.82 344.13 L 365.04 342.42 L 367.26 340.72 L 369.48 339.00 L 371.70 337.27 L 373.92 335.54 L 376.14 333.79 L 378.36 332.03 L 380.58 330.26 L 382.80 328.49 L 385.02 326.70 L 387.24 324.91 L 389.46 323.11 L 391.68 321.30 L 393.90 319.48 L 396.12 317.67 L 398.34 315.85 L 400.56 314.03 L 402.78 312.20 L 405.00 310.37 L 407.22 308.53 L 409.44 306.68 L 411.66 304.82 L 413.88 302.96 L 416.10 301.09 L 418.32 299.20 L 420.54 297.31 L 422.76 295.41 L 424.98 293.50 L 427.20 291.58 L 429.42 289.64 L 431.64 287.69 L 433.86 285.73 L 436.08 283.75 L 438.30 281.76 L 440.52 279.75 L 442.74 277.73 L 444.96 275.68 L 447.18 273.63 L 449.40 271.55 L 451.62 269.45 L 453.84 267.32 L 456.06 265.17 L 458.28 263.00 L 460.50 260.80 L 462.72 258.57 L 464.94 256.31 L 467.16 254.03 L 469.38 251.72 L 471.60 249.37 L 473.82 247.00 L 476.04 244.60 L 478.26 242.17 L 480.48 239.72 L 482.70 237.24 L 484.92 234.73 L 487.14 232.19 L 489.36 229.62 L 491.58 227.02 L 493.80 224.39 L 496.02 221.73 L 498.24 219.04 L 500.46 216.33 L 502.68 213.61 L 504.90 210.89 L 507.12 208.17 L 509.34 205.45 L 511.56 202.73 L 513.78 200.01 L 516.00 197.28 L 518.22 194.54 L 520.44 191.80 L 522.66 189.04 L 524.88 186.26 L 527.10 183.47 L 529.32 180.65 L 531.54 177.82 L 533.76 174.96 L 535.98 172.09 L 538.20 169.19 L 540.42 166.28 L 542.64 163.35 L 544.86 160.41 L 547.08 157.46 L 549.30 154.52 L 551.52 151.56 L 553.74 148.61 L 555.96 145.66 L 558.18 142.71 L 560.40 139.75 L 562.62 136.80 L 564.84 133.85 L 567.06 130.91 L 569.28 127.99 L 571.50 125.07 L 573.72 122.17 L 575.94 119.25 L 578.16 116.34 L 580.38 113.42 L 582.60 110.50 L 584.82 107.56 L 587.04 104.62 L 589.26 101.66 L 591.48 98.69 L 593.70 95.70 L 595.92 92.71 L 598.14 89.70 L 600.36 86.68 L 602.58 83.64 L 604.80 80.59 L 607.02 77.53 L 609.24 74.45 L 611.46 71.36 L 613.68 68.25 L 615.90 65.13 L 618.12 62.00 L 620.34 58.86 L 622.56 55.70 L 624.78 52.53 L 627.00 49.34 L 629.22 48.18 L 631.44 48.10 L 633.66 48.03 L 635.88 48.00 L 638.10 48.01 L 640.32 48.09 L 642.54 48.24 L 644.76 48.46 L 646.98 49.44 L 649.20 53.22 L 651.42 57.13 L 653.64 61.23 L 655.86 65.49 L 658.08 69.88 L 660.30 74.41 L 662.52 79.09 L 664.74 83.92 L 666.96 113.21 L 669.18 159.43 L 671.40 199.38 L 673.62 233.96 L 675.84 263.85 L 678.06 289.58 L 680.28 311.62 L 682.50 330.60 L 684.72 347.49 L 686.94 363.20 L 689.16 377.74 L 691.38 391.18 L 693.60 403.80 L 695.82 415.43 L 698.04 426.06 L 700.26 435.74 L 702.48 444.55 L 704.70 452.48 L 706.92 459.62 L 709.14 466.05 L 711.36 471.86 L 713.58 477.13 L 715.80 481.91 L 718.02 486.25 L 720.24 490.20 L 722.46 493.80 L 724.68 497.09 L 726.90 500.11 L 729.12 502.88 L 731.34 505.43 L 733.56 507.78 L 735.78 509.98 L 738.00 512.04 L 740.22 513.97 L 742.44 515.77 L 744.66 517.47 L 746.88 519.06 L 749.10 520.56 L 751.32 521.97 L 753.54 523.30 L 755.76 524.55 L 757.98 525.73 L 760.20 526.85 L 762.42 527.90 L 764.64 528.90 L 766.86 529.84 L 769.08 530.73 L 771.30 531.58 L 773.52 532.38 L 775.74 533.15 L 777.96 533.88 L 780.18 534.58 L 782.40 535.24 L 784.62 535.88 L 786.84 536.48 L 789.06 537.05 L 791.28 537.60 L 793.50 538.12 L 795.72 538.63 L 797.94 539.12 L 800.16 539.62 L 802.38 540.12 L 804.60 540.62 L 806.82 541.12 L 809.04 541.60 L 811.26 542.07 L 813.48 542.52 L 815.70 542.95 L 817.92 543.37 L 820.14 543.77 L 822.36 544.15 L 824.58 544.52 L 826.80 544.90 L 829.02 545.28 L 831.24 545.65 L 833.46 545.99 L 835.68 546.29 L 837.90 546.57 L 840.12 546.84 L 842.34 547.08 L 844.56 547.31 L 846.78 547.53 L 849.00 547.74 L 851.22 547.93 L 853.44 548.12 L 855.66 548.30 L 857.88 548.48 L 860.10 548.64 L 862.32 548.80 L 864.54 548.95 L 866.76 549.09 L 868.98 549.23 L 871.20 549.37 L 873.42 549.50 L 875.64 549.62 L 877.86 549.74 L 880.08 549.85 L 882.30 549.96 L 884.52 550.07 L 886.74 550.17 L 888.96 550.27 L 891.18 550.36 L 893.40 550.45 L 895.62 550.53 L 897.84 550.62 L 900.06 550.69 L 902.28 550.77 L 904.50 550.84 L 906.72 550.91 L 908.94 550.98 L 911.16 551.04 L 913.38 551.11 L 915.60 551.17 L 917.82 551.22 L 920.04 551.28 L 922.26 551.33 L 924.48 551.39 L 926.70 551.43 L 928.92 551.48 L 931.14 551.53 L 933.36 551.57 L 935.58 551.62 L 937.80 551.66 L 940.02 551.70 L 942.24 551.74 L 944.46 551.77 L 946.68 551.81 L 948.90 551.84 L 951.12 551.88 L 953.34 551.91 L 955.56 551.94 L 957.78 551.97 L 960.00 552.00" fill="none" stroke="#F44336" stroke-width="3" stroke-linejoin="round" stroke-linecap="round" />
  <path d="M 72.00 315.42 L 74.22 299.36 L 76.44 302.37 L 78.66 303.83 L 80.88 304.37 L 83.10 304.39 L 85.32 304.10 L 87.54 303.63 L 89.76 303.06 L 91.98 302.43 L 94.20 301.77 L 96.42 301.08 L 98.64 300.38 L 100.86 299.67 L 103.08 298.94 L 105.30 298.19 L 107.52 297.42 L 109.74 296.64 L 111.96 295.83 L 114.18 295.00 L 116.40 294.16 L 118.62 293.29 L 120.84 292.41 L 123.06 291.50 L 125.28 290.56 L 127.50 289.61 L 129.72 288.58 L 131.94 287.47 L 134.16 286.32 L 136.38 285.14 L 138.60 283.94 L 140.82 282.73 L 143.04 281.51 L 145.26 280.28 L 147.48 279.04 L 149.70 277.79 L 151.92 276.55 L 154.14 275.29 L 156.36 274.03 L 158.58 272.75 L 160.80 271.45 L 163.02 270.14 L 165.24 268.81 L 167.46 267.47 L 169.68 266.10 L 171.90 264.72 L 174.12 263.32 L 176.34 261.91 L 178.56 260.47 L 180.78 259.01 L 183.00 257.54 L 185.22 256.04 L 187.44 254.53 L 189.66 252.99 L 191.88 251.43 L 194.10 249.86 L 196.32 248.26 L 198.54 246.64 L 200.76 245.01 L 202.98 243.35 L 205.20 241.68 L 207.42 239.98 L 209.64 238.26 L 211.86 236.53 L 214.08 234.77 L 216.30 232.99 L 218.52 231.19 L 220.74 229.37 L 222.96 227.53 L 225.18 225.67 L 227.40 223.79 L 229.62 221.89 L 231.84 219.97 L 234.06 218.02 L 236.28 216.06 L 238.50 214.08 L 240.72 212.07 L 242.94 210.05 L 245.16 208.00 L 247.38 205.94 L 249.60 203.88 L 251.82 201.81 L 254.04 201.69 L 256.26 201.17 L 258.48 200.46 L 260.70 199.66 L 262.92 198.80 L 265.14 197.90 L 267.36 196.97 L 269.58 196.00 L 271.80 195.01 L 274.02 194.00 L 276.24 192.96 L 278.46 191.91 L 280.68 190.83 L 282.90 189.73 L 285.12 188.61 L 287.34 187.47 L 289.56 186.31 L 291.78 185.14 L 294.00 183.95 L 296.22 182.74 L 298.44 181.51 L 300.66 180.27 L 302.88 179.01 L 305.10 177.73 L 307.32 176.45 L 309.54 175.14 L 311.76 173.82 L 313.98 172.25 L 316.20 170.61 L 318.42 168.97 L 320.64 167.34 L 322.86 165.72 L 325.08 164.11 L 327.30 162.53 L 329.52 160.96 L 331.74 159.41 L 333.96 157.86 L 336.18 156.33 L 338.40 154.81 L 340.62 153.31 L 342.84 151.81 L 345.06 150.32 L 347.28 148.84 L 349.50 147.38 L 351.72 145.92 L 353.94 144.48 L 356.16 143.05 L 358.38 141.64 L 360.60 140.25 L 362.82 139.44 L 365.04 138.66 L 367.26 137.49 L 369.48 136.18 L 371.70 134.81 L 373.92 133.42 L 376.14 132.04 L 378.36 130.66 L 380.58 129.29 L 382.80 127.93 L 385.02 126.57 L 387.24 125.22 L 389.46 123.87 L 391.68 122.55 L 393.90 121.29 L 396.12 120.06 L 398.34 118.85 L 400.56 117.65 L 402.78 116.47 L 405.00 115.29 L 407.22 114.10 L 409.44 112.78 L 411.66 111.44 L 413.88 110.12 L 416.10 108.80 L 418.32 107.50 L 420.54 106.21 L 422.76 104.94 L 424.98 103.67 L 427.20 102.42 L 429.42 101.17 L 431.64 99.92 L 433.86 98.68 L 436.08 97.44 L 438.30 96.20 L 440.52 94.96 L 442.74 93.72 L 444.96 92.47 L 447.18 91.23 L 449.40 89.98 L 451.62 88.71 L 453.84 87.43 L 456.06 86.14 L 458.28 84.84 L 460.50 83.52 L 462.72 82.18 L 464.94 80.83 L 467.16 79.46 L 469.38 78.07 L 471.60 76.66 L 473.82 75.22 L 476.04 73.78 L 478.26 72.32 L 480.48 70.69 L 482.70 69.02 L 484.92 67.35 L 487.14 65.69 L 489.36 64.05 L 491.58 62.45 L 493.80 60.92 L 496.02 59.39 L 498.24 58.39 L 500.46 58.70 L 502.68 58.54 L 504.90 58.18 L 507.12 57.75 L 509.34 57.32 L 511.56 56.90 L 513.78 56.50 L 516.00 56.12 L 518.22 55.75 L 520.44 55.40 L 522.66 55.04 L 524.88 54.68 L 527.10 54.32 L 529.32 53.94 L 531.54 53.56 L 533.76 53.17 L 535.98 52.76 L 538.20 52.22 L 540.42 51.65 L 542.64 51.08 L 544.86 50.54 L 547.08 50.06 L 549.30 49.62 L 551.52 49.23 L 553.74 48.89 L 555.96 48.60 L 558.18 48.36 L 560.40 48.16 L 562.62 48.00 L 564.84 48.12 L 567.06 48.88 L 569.28 49.53 L 571.50 50.16 L 573.72 50.79 L 575.94 51.42 L 578.16 52.07 L 580.38 52.75 L 582.60 53.45 L 584.82 54.17 L 587.04 54.90 L 589.26 55.65 L 591.48 56.42 L 593.70 57.18 L 595.92 57.92 L 598.14 58.70 L 600.36 59.52 L 602.58 60.38 L 604.80 61.29 L 607.02 62.24 L 609.24 63.22 L 611.46 64.24 L 613.68 65.30 L 615.90 66.30 L 618.12 67.29 L 620.34 68.29 L 622.56 69.32 L 624.78 70.37 L 627.00 71.46 L 629.22 72.59 L 631.44 73.93 L 633.66 75.50 L 635.88 77.24 L 638.10 79.10 L 640.32 81.07 L 642.54 83.13 L 644.76 85.61 L 646.98 88.78 L 649.20 92.54 L 651.42 97.01 L 653.64 101.33 L 655.86 103.54 L 658.08 107.06 L 660.30 111.71 L 662.52 117.26 L 664.74 123.54 L 666.96 130.37 L 669.18 140.15 L 671.40 153.59 L 673.62 168.97 L 675.84 185.23 L 678.06 201.67 L 680.28 217.84 L 682.50 233.48 L 684.72 248.87 L 686.94 264.46 L 689.16 281.53 L 691.38 299.61 L 693.60 316.66 L 695.82 332.78 L 698.04 347.99 L 700.26 362.57 L 702.48 384.41 L 704.70 403.04 L 706.92 419.39 L 709.14 433.89 L 711.36 446.91 L 713.58 459.08 L 715.80 470.20 L 718.02 479.93 L 720.24 488.54 L 722.46 496.18 L 724.68 502.97 L 726.90 509.18 L 729.12 515.66 L 731.34 521.29 L 733.56 526.22 L 735.78 530.59 L 738.00 534.44 L 740.22 537.84 L 742.44 540.85 L 744.66 543.48 L 746.88 545.73 L 749.10 547.62 L 751.32 549.15 L 753.54 550.35 L 755.76 551.21 L 757.98 551.76 L 760.20 552.00 L 762.42 551.94 L 764.64 551.59 L 766.86 550.94 L 769.08 550.02 L 771.30 548.81 L 773.52 547.31 L 775.74 545.54 L 777.96 543.48 L 780.18 541.14 L 782.40 538.50 L 784.62 535.57 L 786.84 532.47 L 789.06 529.29 L 791.28 526.02 L 793.50 522.64 L 795.72 519.19 L 797.94 515.66 L 800.16 512.05 L 802.38 508.37 L 804.60 504.62 L 806.82 500.82 L 809.04 496.94 L 811.26 492.94 L 813.48 488.85 L 815.70 484.70 L 817.92 480.51 L 820.14 476.28 L 822.36 472.02 L 824.58 467.75 L 826.80 463.47 L 829.02 459.18 L 831.24 454.90 L 833.46 450.62 L 835.68 446.35 L 837.90 442.08 L 840.12 437.82 L 842.34 433.56 L 844.56 429.33 L 846.78 425.13 L 849.00 420.96 L 851.22 416.84 L 853.44 412.76 L 855.66 408.75 L 857.88 404.81 L 860.10 400.91 L 862.32 397.08 L 864.54 393.31 L 866.76 389.60 L 868.98 385.96 L 871.20 382.40 L 873.42 378.90 L 875.64 375.48 L 877.86 372.14 L 880.08 368.88 L 882.30 365.70 L 884.52 362.60 L 886.74 359.56 L 888.96 356.58 L 891.18 353.64 L 893.40 350.77 L 895.62 347.98 L 897.84 345.29 L 900.06 342.68 L 902.28 340.17 L 904.50 337.76 L 906.72 335.43 L 908.94 333.19 L 911.16 331.03 L 913.38 328.96 L 915.60 326.96 L 917.82 325.04 L 920.04 323.21 L 922.26 321.46 L 924.48 319.78 L 926.70 318.18 L 928.92 316.65 L 931.14 315.18 L 933.36 313.78 L 935.58 312.45 L 937.80 311.17 L 940.02 309.95 L 942.24 308.78 L 944.46 307.67 L 946.68 306.61 L 948.90 305.59 L 951.12 304.60 L 953.34 303.66 L 955.56 302.73 L 957.78 301.84 L 960.00 300.96" fill="none" stroke="#FF9800" stroke-width="3" stroke-linejoin="round" stroke-linecap="round" />
  <path d="M 72.00 547.83 L 74.22 548.88 L 76.44 549.69 L 78.66 550.30 L 80.88 550.77 L 83.10 551.12 L 85.32 551.39 L 87.54 551.59 L 89.76 551.74 L 91.98 551.85 L 94.20 551.92 L 96.42 551.97 L 98.64 551.99 L 100.86 552.00 L 103.08 551.99 L 105.30 551.97 L 107.52 551.94 L 109.74 551.90 L 111.96 551.85 L 114.18 551.79 L 116.40 551.72 L 118.62 551.65 L 120.84 551.57 L 123.06 551.48 L 125.28 551.40 L 127.50 551.30 L 129.72 551.20 L 131.94 551.10 L 134.16 551.00 L 136.38 550.89 L 138.60 550.78 L 140.82 550.66 L 143.04 550.55 L 145.26 550.43 L 147.48 550.31 L 149.70 550.18 L 151.92 550.06 L 154.14 549.93 L 156.36 549.81 L 158.58 549.68 L 160.80 549.55 L 163.02 549.42 L 165.24 549.29 L 167.46 549.16 L 169.68 549.02 L 171.90 548.89 L 174.12 548.76 L 176.34 548.62 L 178.56 548.48 L 180.78 548.35 L 183.00 548.21 L 185.22 548.07 L 187.44 547.93 L 189.66 547.79 L 191.88 547.65 L 194.10 547.51 L 196.32 547.37 L 198.54 547.23 L 200.76 547.09 L 202.98 546.94 L 205.20 546.80 L 207.42 546.65 L 209.64 546.51 L 211.86 546.36 L 214.08 546.21 L 216.30 546.06 L 218.52 545.91 L 220.74 545.75 L 222.96 545.60 L 225.18 545.44 L 227.40 545.28 L 229.62 545.12 L 231.84 544.96 L 234.06 544.80 L 236.28 544.64 L 238.50 544.47 L 240.72 544.30 L 242.94 544.13 L 245.16 543.96 L 247.38 543.78 L 249.60 543.61 L 251.82 543.43 L 254.04 543.24 L 256.26 543.06 L 258.48 542.87 L 260.70 542.68 L 262.92 542.49 L 265.14 542.29 L 267.36 542.10 L 269.58 541.90 L 271.80 541.69 L 274.02 541.48 L 276.24 541.27 L 278.46 541.06 L 280.68 540.84 L 282.90 540.62 L 285.12 540.40 L 287.34 540.17 L 289.56 539.94 L 291.78 539.70 L 294.00 539.46 L 296.22 539.22 L 298.44 538.97 L 300.66 538.72 L 302.88 538.46 L 305.10 538.20 L 307.32 537.94 L 309.54 537.67 L 311.76 537.39 L 313.98 537.11 L 316.20 536.83 L 318.42 536.54 L 320.64 536.25 L 322.86 535.95 L 325.08 535.64 L 327.30 535.34 L 329.52 535.02 L 331.74 534.70 L 333.96 534.38 L 336.18 534.05 L 338.40 533.71 L 340.62 533.37 L 342.84 533.02 L 345.06 532.67 L 347.28 532.31 L 349.50 531.95 L 351.72 531.58 L 353.94 531.20 L 356.16 530.82 L 358.38 530.43 L 360.60 530.03 L 362.82 529.63 L 365.04 529.22 L 367.26 528.81 L 369.48 528.38 L 371.70 527.95 L 373.92 527.52 L 376.14 527.07 L 378.36 526.62 L 380.58 526.17 L 382.80 525.70 L 385.02 525.23 L 387.24 524.75 L 389.46 524.26 L 391.68 523.75 L 393.90 523.24 L 396.12 522.71 L 398.34 522.17 L 400.56 521.62 L 402.78 521.06 L 405.00 520.49 L 407.22 519.91 L 409.44 519.31 L 411.66 518.70 L 413.88 518.08 L 416.10 517.45 L 418.32 516.81 L 420.54 516.14 L 422.76 515.47 L 424.98 514.78 L 427.20 514.07 L 429.42 513.35 L 431.64 512.61 L 433.86 511.85 L 436.08 511.08 L 438.30 510.28 L 440.52 509.47 L 442.74 508.64 L 444.96 507.78 L 447.18 506.91 L 449.40 506.02 L 451.62 505.10 L 453.84 504.16 L 456.06 503.20 L 458.28 502.22 L 460.50 501.22 L 462.72 500.19 L 464.94 499.13 L 467.16 498.06 L 469.38 496.96 L 471.60 495.83 L 473.82 494.68 L 476.04 493.50 L 478.26 492.30 L 480.48 491.07 L 482.70 489.81 L 484.92 488.53 L 487.14 487.22 L 489.36 485.88 L 491.58 484.51 L 493.80 483.11 L 496.02 481.69 L 498.24 480.23 L 500.46 478.75 L 502.68 477.23 L 504.90 475.68 L 507.12 474.11 L 509.34 472.50 L 511.56 470.86 L 513.78 469.18 L 516.00 467.47 L 518.22 465.73 L 520.44 463.95 L 522.66 462.14 L 524.88 460.29 L 527.10 458.40 L 529.32 456.47 L 531.54 454.50 L 533.76 452.49 L 535.98 450.43 L 538.20 448.33 L 540.42 446.18 L 542.64 443.99 L 544.86 441.75 L 547.08 439.46 L 549.30 437.11 L 551.52 434.72 L 553.74 432.27 L 555.96 429.76 L 558.18 427.20 L 560.40 424.57 L 562.62 421.89 L 564.84 419.15 L 567.06 416.34 L 569.28 413.47 L 571.50 410.54 L 573.72 407.53 L 575.94 404.46 L 578.16 401.32 L 580.38 398.11 L 582.60 394.82 L 584.82 391.47 L 587.04 388.03 L 589.26 384.52 L 591.48 380.93 L 593.70 377.26 L 595.92 373.51 L 598.14 369.67 L 600.36 365.75 L 602.58 361.74 L 604.80 357.64 L 607.02 353.44 L 609.24 349.16 L 611.46 344.78 L 613.68 340.30 L 615.90 335.72 L 618.12 331.04 L 620.34 326.25 L 622.56 321.36 L 624.78 316.36 L 627.00 311.24 L 629.22 306.02 L 631.44 300.68 L 633.66 295.22 L 635.88 289.63 L 638.10 283.93 L 640.32 278.10 L 642.54 272.14 L 644.76 266.06 L 646.98 259.84 L 649.20 253.49 L 651.42 247.02 L 653.64 240.41 L 655.86 233.67 L 658.08 226.81 L 660.30 219.83 L 662.52 212.72 L 664.74 205.50 L 666.96 198.17 L 669.18 190.72 L 671.40 183.18 L 673.62 175.54 L 675.84 167.81 L 678.06 159.99 L 680.28 152.12 L 682.50 144.20 L 684.72 136.26 L 686.94 128.36 L 689.16 120.53 L 691.38 112.81 L 693.60 105.28 L 695.82 97.97 L 698.04 90.95 L 700.26 84.28 L 702.48 78.02 L 704.70 72.21 L 706.92 66.92 L 709.14 62.20 L 711.36 58.08 L 713.58 54.62 L 715.80 51.85 L 718.02 49.81 L 720.24 48.52 L 722.46 48.00 L 724.68 48.27 L 726.90 49.35 L 729.12 51.22 L 731.34 53.91 L 733.56 57.39 L 735.78 61.66 L 738.00 66.70 L 740.22 72.48 L 742.44 78.99 L 744.66 86.18 L 746.88 94.03 L 749.10 102.49 L 751.32 111.52 L 753.54 121.07 L 755.76 131.10 L 757.98 141.56 L 760.20 152.39 L 762.42 163.54 L 764.64 174.96 L 766.86 186.59 L 769.08 198.38 L 771.30 210.28 L 773.52 222.24 L 775.74 234.20 L 777.96 246.13 L 780.18 257.96 L 782.40 269.67 L 784.62 281.22 L 786.84 292.56 L 789.06 303.67 L 791.28 314.52 L 793.50 325.08 L 795.72 335.34 L 797.94 345.28 L 800.16 354.89 L 802.38 364.15 L 804.60 373.07 L 806.82 381.64 L 809.04 389.85 L 811.26 397.72 L 813.48 405.24 L 815.70 412.43 L 817.92 419.29 L 820.14 425.82 L 822.36 432.05 L 824.58 437.98 L 826.80 443.61 L 829.02 448.98 L 831.24 454.08 L 833.46 458.93 L 835.68 463.54 L 837.90 467.92 L 840.12 472.08 L 842.34 476.03 L 844.56 479.79 L 846.78 483.37 L 849.00 486.76 L 851.22 489.99 L 853.44 493.06 L 855.66 495.98 L 857.88 498.76 L 860.10 501.40 L 862.32 503.92 L 864.54 506.31 L 866.76 508.58 L 868.98 510.75 L 871.20 512.81 L 873.42 514.77 L 875.64 516.64 L 877.86 518.42 L 880.08 520.11 L 882.30 521.72 L 884.52 523.25 L 886.74 524.71 L 888.96 526.10 L 891.18 527.42 L 893.40 528.66 L 895.62 529.84 L 897.84 530.95 L 900.06 532.01 L 902.28 533.02 L 904.50 533.98 L 906.72 534.89 L 908.94 535.76 L 911.16 536.59 L 913.38 537.39 L 915.60 538.14 L 917.82 538.86 L 920.04 539.55 L 922.26 540.20 L 924.48 540.83 L 926.70 541.42 L 928.92 541.99 L 931.14 542.53 L 933.36 543.04 L 935.58 543.53 L 937.80 544.00 L 940.02 544.45 L 942.24 544.87 L 944.46 545.27 L 946.68 545.66 L 948.90 546.02 L 951.12 546.37 L 953.34 546.70 L 955.56 547.02 L 957.78 547.32 L 960.00 547.60" fill="none" stroke="#9C27B0" stroke-width="3" stroke-linejoin="round" stroke-linecap="round" />
  <rect x="750" y="36" width="14" height="14" fill="#2196F3" rx="3" />
  <text x="772" y="48" font-size="14" fill="#1f2937">Population</text>
  <rect x="750" y="60" width="14" height="14" fill="#4CAF50" rx="3" />
  <text x="772" y="72" font-size="14" fill="#1f2937">Resources</text>
  <rect x="750" y="84" width="14" height="14" fill="#F44336" rx="3" />
  <text x="772" y="96" font-size="14" fill="#1f2937">Industrial output/cap</text>
  <rect x="750" y="108" width="14" height="14" fill="#FF9800" rx="3" />
  <text x="772" y="120" font-size="14" fill="#1f2937">Food/capita</text>
  <rect x="750" y="132" width="14" height="14" fill="#9C27B0" rx="3" />
  <text x="772" y="144" font-size="14" fill="#1f2937">Pollution index</text>
  <text x="500" y="596" text-anchor="middle" font-size="13" fill="#6b7280">Year</text>
  <text x="20" y="300" text-anchor="middle" font-size="13" fill="#6b7280" transform="rotate(-90 20 300)">Normalized value</text>
</svg>