<?xml version="1.0" encoding="UTF-8"?>
<svg xmlns="http://www.w3.org/2000/svg" width="1000" height="600" viewBox="0 0 1000 600" role="img" aria-labelledby="title desc">
  <title id="title">World3 browser-native simulation plot</title>
  <desc id="desc">Normalized key simulation variables from 1900 to 2100.</desc>
  <rect width="1000" height="600" fill="#ffffff" />
  <text x="72" y="28" font-size="24" font-weight="700" fill="#111827">World3 Simulation — Key Variables</text>
  <text x="72" y="48" font-size="14" fill="#4b5563">1900-2100 • dt 0.50</text>
  <rect x="72" y="48" width="648" height="504" fill="#f8fafc" stroke="#cbd5e1" />
  <line x1="72" y1="48" x2="720" y2="48" stroke="#e5e7eb" stroke-width="1" /><text x="18" y="52" font-size="12" fill="#6b7280">1.00</text><line x1="72" y1="174" x2="720" y2="174" stroke="#e5e7eb" stroke-width="1" /><text x="18" y="178" font-size="12" fill="#6b7280">0.75</text><line x1="72" y1="300" x2="720" y2="300" stroke="#e5e7eb" stroke-width="1" /><text x="18" y="304" font-size="12" fill="#6b7280">0.50</text><line x1="72" y1="426" x2="720" y2="426" stroke="#e5e7eb" stroke-width="1" /><text x="18" y="430" font-size="12" fill="#6b7280">0.25</text><line x1="72" y1="552" x2="720" y2="552" stroke="#e5e7eb" stroke-width="1" /><text x="18" y="556" font-size="12" fill="#6b7280">0.00</text>
  <line x1="72" y1="48" x2="72" y2="552" stroke="#e5e7eb" stroke-width="1" /><text x="72" y="584" text-anchor="middle" font-size="12" fill="#6b7280">1900</text><line x1="234" y1="48" x2="234" y2="552" stroke="#e5e7eb" stroke-width="1" /><text x="234" y="584" text-anchor="middle" font-size="12" fill="#6b7280">1950</text><line x1="396" y1="48" x2="396" y2="552" stroke="#e5e7eb" stroke-width="1" /><text x="396" y="584" text-anchor="middle" font-size="12" fill="#6b7280">2000</text><line x1="558" y1="48" x2="558" y2="552" stroke="#e5e7eb" stroke-width="1" /><text x="558" y="584" text-anchor="middle" font-size="12" fill="#6b7280">2050</text><line x1="720" y1="48" x2="720" y2="552" stroke="#e5e7eb" stroke-width="1" /><text x="720" y="584" text-anchor="middle" font-size="12" fill="#6b7280">2100</text>
  <line x1="72" y1="552" x2="960" y2="552" stroke="#64748b" stroke-width="1.5" />
  <line x1="72" y1="48" x2="72" y2="552" stroke="#64748b" stroke-width="1.5" />
  <path d="M 72.00 552.00 L 73.62 551.73 L 75.24 551.38 L 76.86 550.97 L 78.48 550.51 L 80.10 550.01 L 81.72 549.49 L 83.34 548.94 L 84.96 548.38 L 86.58 547.81 L 88.20 547.24 L 89.82 546.66 L 91.44 546.08 L 93.06 545.50 L 94.68 544.92 L 96.30 544.34 L 97.92 543.76 L 99.54 543.18 L 101.16 542.61 L 102.78 542.03 L 104.40 541.45 L 106.02 540.87 L 107.64 540.30 L 109.26 539.72 L 110.88 539.14 L 112.50 538.57 L 114.12 537.99 L 115.74 537.41 L 117.36 536.83 L 118.98 536.25 L 120.60 535.67 L 122.22 535.08 L 123.84 534.50 L 125.46 533.91 L 127.08 533.32 L 128.70 532.72 L 130.32 532.12 L 131.94 531.52 L 133.56 530.92 L 135.18 530.31 L 136.80 529.70 L 138.42 529.08 L 140.04 528.47 L 141.66 527.84 L 143.28 527.22 L 144.90 526.58 L 146.52 525.95 L 148.14 525.31 L 149.76 524.66 L 151.38 524.01 L 153.00 523.36 L 154.62 522.69 L 156.24 522.03 L 157.86 521.36 L 159.48 520.68 L 161.10 519.99 L 162.72 519.30 L 164.34 518.60 L 165.96 517.90 L 167.58 517.19 L 169.20 516.47 L 170.82 515.74 L 172.44 515.01 L 174.06 514.27 L 175.68 513.52 L 177.30 512.76 L 178.92 511.99 L 180.54 511.21 L 182.16 510.43 L 183.78 509.63 L 185.40 508.83 L 187.02 508.02 L 188.64 507.20 L 190.26 506.36 L 191.88 505.52 L 193.50 504.67 L 195.12 503.81 L 196.74 502.93 L 198.36 502.05 L 199.98 501.15 L 201.60 500.24 L 203.22 499.33 L 204.84 497.63 L 206.46 495.96 L 208.08 494.29 L 209.70 492.62 L 211.32 490.96 L 212.94 489.29 L 214.56 487.62 L 216.18 485.94 L 217.80 484.25 L 219.42 482.56 L 221.04 480.85 L 222.66 479.14 L 224.28 477.41 L 225.90 475.67 L 227.52 473.92 L 229.14 472.16 L 230.76 470.38 L 232.38 468.59 L 234.00 466.79 L 235.62 464.97 L 237.24 463.14 L 238.86 461.30 L 240.48 459.44 L 242.10 457.57 L 243.72 455.68 L 245.34 453.77 L 246.96 451.86 L 248.58 449.92 L 250.20 447.97 L 251.82 446.00 L 253.44 444.02 L 255.06 442.01 L 256.68 439.99 L 258.30 437.95 L 259.92 435.90 L 261.54 433.82 L 263.16 431.72 L 264.78 429.61 L 266.40 427.48 L 268.02 425.33 L 269.64 423.16 L 271.26 420.97 L 272.88 418.76 L 274.50 416.53 L 276.12 414.29 L 277.74 412.02 L 279.36 409.74 L 280.98 407.42 L 282.60 405.08 L 284.22 402.72 L 285.84 400.34 L 287.46 397.94 L 289.08 395.52 L 290.70 393.09 L 292.32 390.63 L 293.94 388.15 L 295.56 385.66 L 297.18 383.14 L 298.80 380.60 L 300.42 378.04 L 302.04 375.45 L 303.66 372.85 L 305.28 370.22 L 306.90 367.58 L 308.52 364.91 L 310.14 362.23 L 311.76 359.53 L 313.38 356.82 L 315.00 354.09 L 316.62 351.34 L 318.24 348.57 L 319.86 345.78 L 321.48 342.98 L 323.10 340.16 L 324.72 337.32 L 326.34 334.46 L 327.96 331.58 L 329.58 328.69 L 331.20 325.77 L 332.82 322.85 L 334.44 319.91 L 336.06 316.96 L 337.68 314.00 L 339.30 311.02 L 340.92 308.04 L 342.54 305.04 L 344.16 302.04 L 345.78 299.03 L 347.40 296.01 L 349.02 293.00 L 350.64 289.98 L 352.26 286.97 L 353.88 283.96 L 355.50 280.95 L 357.12 277.95 L 358.74 274.96 L 360.36 271.97 L 361.98 268.99 L 363.60 266.01 L 365.22 263.06 L 366.84 260.10 L 368.46 257.15 L 370.08 254.20 L 371.70 251.26 L 373.32 248.31 L 374.94 245.38 L 376.56 242.45 L 378.18 239.53 L 379.80 236.61 L 381.42 233.71 L 383.04 230.82 L 384.66 227.94 L 386.28 225.07 L 387.90 222.20 L 389.52 219.32 L 391.14 216.43 L 392.76 213.53 L 394.38 210.63 L 396.00 207.73 L 397.62 204.82 L 399.24 201.91 L 400.86 199.01 L 402.48 196.13 L 404.10 193.27 L 405.72 190.42 L 407.34 187.59 L 408.96 184.78 L 410.58 181.98 L 412.20 179.19 L 413.82 176.42 L 415.44 173.66 L 417.06 170.91 L 418.68 168.15 L 420.30 165.39 L 421.92 162.62 L 423.54 159.85 L 425.16 157.07 L 426.78 154.29 L 428.40 151.50 L 430.02 148.71 L 431.64 145.91 L 433.26 143.11 L 434.88 140.30 L 436.50 137.49 L 438.12 134.69 L 439.74 131.90 L 441.36 129.13 L 442.98 126.38 L 444.60 123.64 L 446.22 120.94 L 447.84 118.26 L 449.46 115.61 L 451.08 112.99 L 452.70 110.40 L 454.32 107.85 L 455.94 105.32 L 457.56 102.82 L 459.18 100.35 L 460.80 97.91 L 462.42 95.50 L 464.04 93.13 L 465.66 90.79 L 467.28 88.47 L 468.90 86.19 L 470.52 83.94 L 472.14 81.73 L 473.76 79.54 L 475.38 77.39 L 477.00 75.28 L 478.62 73.19 L 480.24 71.18 L 481.86 69.25 L 483.48 67.40 L 485.10 65.61 L 486.72 63.89 L 488.34 62.23 L 489.96 60.63 L 491.58 59.08 L 493.20 57.59 L 494.82 56.20 L 496.44 54.89 L 498.06 53.64 L 499.68 52.47 L 501.30 51.35 L 502.92 50.30 L 504.54 49.31 L 506.16 48.43 L 507.78 48.00 L 509.40 48.27 L 511.02 48.92 L 512.64 49.79 L 514.26 50.93 L 515.88 52.39 L 517.50 54.15 L 519.12 56.22 L 520.74 58.67 L 522.36 61.49 L 523.98 64.69 L 525.60 68.25 L 527.22 72.13 L 528.84 76.31 L 530.46 80.92 L 532.08 85.90 L 533.70 91.82 L 535.32 98.56 L 536.94 106.09 L 538.56 114.25 L 540.18 122.92 L 541.80 132.03 L 543.42 141.66 L 545.04 151.67 L 546.66 161.95 L 548.28 172.40 L 549.90 182.95 L 551.52 193.54 L 553.14 204.16 L 554.76 214.70 L 556.38 224.90 L 558.00 234.79 L 559.62 244.36 L 561.24 253.64 L 562.86 262.64 L 564.48 271.36 L 566.10 279.81 L 567.72 288.01 L 569.34 295.97 L 570.96 303.69 L 572.58 311.18 L 574.20 318.45 L 575.82 325.49 L 577.44 332.32 L 579.06 338.94 L 580.68 345.36 L 582.30 351.59 L 583.92 357.63 L 585.54 363.49 L 587.16 369.18 L 588.78 374.69 L 590.40 380.04 L 592.02 385.24 L 593.64 390.28 L 595.26 395.17 L 596.88 399.93 L 598.50 404.53 L 600.12 408.89 L 601.74 413.01 L 603.36 416.90 L 604.98 420.58 L 606.60 424.04 L 608.22 427.31 L 609.84 430.38 L 611.46 433.26 L 613.08 435.96 L 614.70 438.47 L 616.32 440.82 L 617.94 443.00 L 619.56 445.02 L 621.18 446.88 L 622.80 448.59 L 624.42 450.18 L 626.04 451.66 L 627.66 453.03 L 629.28 454.29 L 630.90 455.46 L 632.52 456.53 L 634.14 457.51 L 635.76 458.40 L 637.38 459.21 L 639.00 459.93 L 640.62 460.58 L 642.24 461.15 L 643.86 461.65 L 645.48 462.09 L 647.10 462.48 L 648.72 462.82 L 650.34 463.12 L 651.96 463.38 L 653.58 463.60 L 655.20 463.80 L 656.82 463.97 L 658.44 464.11 L 660.06 464.24 L 661.68 464.33 L 663.30 464.42 L 664.92 464.48 L 666.54 464.55 L 668.16 464.62 L 669.78 464.71 L 671.40 464.79 L 673.02 464.88 L 674.64 464.97 L 676.26 465.06 L 677.88 465.15 L 679.50 465.24 L 681.12 465.33 L 682.74 465.42 L 684.36 465.51 L 685.98 465.60 L 687.60 465.70 L 689.22 465.79 L 690.84 465.89 L 692.46 465.98 L 694.08 466.07 L 695.70 466.16 L 697.32 466.24 L 698.94 466.33 L 700.56 466.42 L 702.18 466.51 L 703.80 466.60 L 705.42 466.69 L 707.04 466.79 L 708.66 466.88 L 710.28 466.98 L 711.90 467.08 L 713.52 467.19 L 715.14 467.31 L 716.76 467.43 L 718.38 467.57 L 720.00 467.72" fill="none" stroke="#2196F3" stroke-width="3" stroke-linejoin="round" stroke-linecap="round" />
  <path d="M 72.00 48.00 L 73.62 48.07 L 75.24 48.14 L 76.86 48.22 L 78.48 48.29 L 80.10 48.37 L 81.72 48.45 L 83.34 48.53 L 84.96 48.61 L 86.58 48.69 L 88.20 48.78 L 89.82 48.86 L 91.44 48.95 L 93.06 49.04 L 94.68 49.13 L 96.30 49.22 L 97.92 49.32 L 99.54 49.41 L 101.16 49.51 L 102.78 49.61 L 104.40 49.71 L 106.02 49.81 L 107.64 49.92 L 109.26 50.02 L 110.88 50.13 L 112.50 50.24 L 114.12 50.35 L 115.74 50.47 L 117.36 50.58 L 118.98 50.70 L 120.60 50.82 L 122.22 50.94 L 123.84 51.06 L 125.46 51.19 L 127.08 51.32 L 128.70 51.45 L 130.32 51.58 L 131.94 51.71 L 133.56 51.85 L 135.18 51.99 L 136.80 52.13 L 138.42 52.27 L 140.04 52.42 L 141.66 52.57 L 143.28 52.72 L 144.90 52.87 L 146.52 53.03 L 148.14 53.19 L 149.76 53.35 L 151.38 53.52 L 153.00 53.69 L 154.62 53.86 L 156.24 54.03 L 157.86 54.21 L 159.48 54.39 L 161.10 54.57 L 162.72 54.76 L 164.34 54.95 L 165.96 55.14 L 167.58 55.33 L 169.20 55.53 L 170.82 55.74 L 172.44 55.94 L 174.06 56.15 L 175.68 56.37 L 177.30 56.59 L 178.92 56.81 L 180.54 57.03 L 182.16 57.26 L 183.78 57.50 L 185.40 57.74 L 187.02 57.98 L 188.64 58.22 L 190.26 58.48 L 191.88 58.73 L 193.50 58.99 L 195.12 59.26 L 196.74 59.53 L 198.36 59.80 L 199.98 60.08 L 201.60 60.36 L 203.22 60.65 L 204.84 60.95 L 206.46 61.25 L 208.08 61.55 L 209.70 61.86 L 211.32 62.18 L 212.94 62.50 L 214.56 62.83 L 216.18 63.16 L 217.80 63.50 L 219.42 63.84 L 221.04 64.20 L 222.66 64.55 L 224.28 64.92 L 225.90 65.29 L 227.52 65.66 L 229.14 66.05 L 230.76 66.44 L 232.38 66.83 L 234.00 67.24 L 235.62 67.65 L 237.24 68.06 L 238.86 68.49 L 240.48 68.92 L 242.10 69.36 L 243.72 69.81 L 245.34 70.26 L 246.96 70.73 L 248.58 71.20 L 250.20 71.68 L 251.82 72.16 L 253.44 72.66 L 255.06 73.16 L 256.68 73.68 L 258.30 74.20 L 259.92 74.73 L 261.54 75.27 L 263.16 75.82 L 264.78 76.38 L 266.40 76.95 L 268.02 77.53 L 269.64 78.12 L 271.26 78.71 L 272.88 79.32 L 274.50 79.94 L 276.12 80.57 L 277.74 81.21 L 279.36 81.87 L 280.98 82.53 L 282.60 83.21 L 284.22 83.89 L 285.84 84.59 L 287.46 85.30 L 289.08 86.02 L 290.70 86.75 L 292.32 87.50 L 293.94 88.26 L 295.56 89.03 L 297.18 89.82 L 298.80 90.62 L 300.42 91.43 L 302.04 92.25 L 303.66 93.09 L 305.28 93.95 L 306.90 94.82 L 308.52 95.72 L 310.14 96.64 L 311.76 97.58 L 313.38 98.54 L 315.00 99.53 L 316.62 100.54 L 318.24 101.58 L 319.86 102.64 L 321.48 103.72 L 323.10 104.83 L 324.72 105.96 L 326.34 107.12 L 327.96 108.31 L 329.58 109.52 L 331.20 110.76 L 332.82 112.03 L 334.44 113.32 L 336.06 114.64 L 337.68 116.00 L 339.30 117.38 L 340.92 118.79 L 342.54 120.23 L 344.16 121.70 L 345.78 123.20 L 347.40 124.74 L 349.02 126.31 L 350.64 127.91 L 352.26 129.54 L 353.88 131.21 L 355.50 132.91 L 357.12 134.65 L 358.74 136.42 L 360.36 138.23 L 361.98 140.08 L 363.60 141.96 L 365.22 143.88 L 366.84 145.84 L 368.46 147.84 L 370.08 149.88 L 371.70 151.96 L 373.32 154.09 L 374.94 156.25 L 376.56 158.46 L 378.18 160.71 L 379.80 163.00 L 381.42 165.34 L 383.04 167.72 L 384.66 170.15 L 386.28 172.63 L 387.90 175.15 L 389.52 177.72 L 391.14 180.34 L 392.76 183.01 L 394.38 185.72 L 396.00 188.49 L 397.62 191.30 L 399.24 194.16 L 400.86 197.08 L 402.48 200.04 L 404.10 203.06 L 405.72 206.13 L 407.34 209.26 L 408.96 212.43 L 410.58 215.66 L 412.20 218.95 L 413.82 222.29 L 415.44 225.68 L 417.06 229.13 L 418.68 232.64 L 420.30 236.21 L 421.92 239.83 L 423.54 243.51 L 425.16 247.25 L 426.78 251.05 L 428.40 254.90 L 430.02 258.82 L 431.64 262.80 L 433.26 266.84 L 434.88 270.94 L 436.50 275.10 L 438.12 279.32 L 439.74 283.61 L 441.36 287.96 L 442.98 292.36 L 444.60 296.84 L 446.22 301.37 L 447.84 305.97 L 449.46 310.64 L 451.08 315.36 L 452.70 320.16 L 454.32 325.01 L 455.94 329.94 L 457.56 334.93 L 459.18 339.98 L 460.80 345.11 L 462.42 350.30 L 464.04 355.56 L 465.66 360.89 L 467.28 366.28 L 468.90 371.75 L 470.52 377.28 L 472.14 382.89 L 473.76 388.56 L 475.38 394.31 L 477.00 400.12 L 478.62 406.00 L 480.24 411.93 L 481.86 417.87 L 483.48 423.84 L 485.10 429.82 L 486.72 435.82 L 488.34 441.84 L 489.96 447.87 L 491.58 453.91 L 493.20 459.96 L 494.82 465.95 L 496.44 471.90 L 498.06 477.79 L 499.68 483.63 L 501.30 489.40 L 502.92 495.12 L 504.54 500.76 L 506.16 506.34 L 507.78 511.45 L 509.40 515.83 L 511.02 519.58 L 512.64 522.77 L 514.26 525.48 L 515.88 527.78 L 517.50 529.73 L 519.12 531.43 L 520.74 532.99 L 522.36 534.44 L 523.98 535.76 L 525.60 536.97 L 527.22 538.09 L 528.84 539.11 L 530.46 540.05 L 532.08 540.90 L 533.70 541.69 L 535.32 542.41 L 536.94 543.07 L 538.56 543.68 L 540.18 544.24 L 541.80 544.75 L 543.42 545.23 L 545.04 545.67 L 546.66 546.07 L 548.28 546.44 L 549.90 546.79 L 551.52 547.11 L 553.14 547.40 L 554.76 547.68 L 556.38 547.93 L 558.00 548.17 L 559.62 548.39 L 561.24 548.60 L 562.86 548.79 L 564.48 548.97 L 566.10 549.14 L 567.72 549.29 L 569.34 549.44 L 570.96 549.58 L 572.58 549.71 L 574.20 549.83 L 575.82 549.94 L 577.44 550.05 L 579.06 550.15 L 580.68 550.25 L 582.30 550.34 L 583.92 550.42 L 585.54 550.50 L 587.16 550.58 L 588.78 550.65 L 590.40 550.71 L 592.02 550.78 L 593.64 550.84 L 595.26 550.90 L 596.88 550.95 L 598.50 551.00 L 600.12 551.05 L 601.74 551.10 L 603.36 551.14 L 604.98 551.18 L 606.60 551.22 L 608.22 551.26 L 609.84 551.30 L 611.46 551.33 L 613.08 551.36 L 614.70 551.39 L 616.32 551.42 L 617.94 551.45 L 619.56 551.47 L 621.18 551.50 L 622.80 551.52 L 624.42 551.54 L 626.04 551.56 L 627.66 551.58 L 629.28 551.60 L 630.90 551.62 L 632.52 551.64 L 634.14 551.65 L 635.76 551.67 L 637.38 551.68 L 639.00 551.70 L 640.62 551.71 L 642.24 551.72 L 643.86 551.74 L 645.48 551.75 L 647.10 551.76 L 648.72 551.77 L 650.34 551.78 L 651.96 551.79 L 653.58 551.80 L 655.20 551.81 L 656.82 551.82 L 658.44 551.83 L 660.06 551.84 L 661.68 551.84 L 663.30 551.85 L 664.92 551.86 L 666.54 551.87 L 668.16 551.87 L 669.78 551.88 L 671.40 551.89 L 673.02 551.89 L 674.64 551.90 L 676.26 551.90 L 677.88 551.91 L 679.50 551.91 L 681.12 551.92 L 682.74 551.92 L 684.36 551.93 L 685.98 551.93 L 687.60 551.94 L 689.22 551.94 L 690.84 551.95 L 692.46 551.95 L 694.08 551.95 L 695.70 551.96 L 697.32 551.96 L 698.94 551.96 L 700.56 551.97 L 702.18 551.97 L 703.80 551.97 L 705.42 551.98 L 707.04 551.98 L 708.66 551.98 L 710.28 551.99 L 711.90 551.99 L 713.52 551.99 L 715.14 551.99 L 716.76 552.00 L 718.38 552.00 L 720.00 552.00" fill="none" stroke="#4CAF50" stroke-width="3" stroke-linejoin="round" stroke-linecap="round" />
  <path d="M 72.00 505.15 L 73.62 505.12 L 75.24 504.08 L 76.86 503.13 L 78.48 502.23 L 80.10 501.38 L 81.72 500.56 L 83.34 499.76 L 84.96 498.98 L 86.58 498.20 L 88.20 497.46 L 89.82 496.72 L 91.44 495.99 L 93.06 495.25 L 94.68 494.50 L 96.30 493.75 L 97.92 493.00 L 99.54 492.24 L 101.16 491.47 L 102.78 490.69 L 104.40 489.90 L 106.02 489.11 L 107.64 488.31 L 109.26 487.49 L 110.88 486.67 L 112.50 485.83 L 114.12 484.99 L 115.74 484.13 L 117.36 483.26 L 118.98 482.38 L 120.60 481.48 L 122.22 480.58 L 123.84 479.66 L 125.46 478.72 L 127.08 477.78 L 128.70 476.82 L 130.32 475.84 L 131.94 474.85 L 133.56 473.85 L 135.18 472.84 L 136.80 471.81 L 138.42 470.76 L 140.04 469.70 L 141.66 468.63 L 143.28 467.54 L 144.90 466.44 L 146.52 465.32 L 148.14 464.19 L 149.76 463.04 L 151.38 461.87 L 153.00 460.69 L 154.62 459.50 L 156.24 458.29 L 157.86 457.06 L 159.48 455.81 L 161.10 454.55 L 162.72 453.28 L 164.34 451.98 L 165.96 450.67 L 167.58 449.35 L 169.20 448.01 L 170.82 446.65 L 172.44 445.27 L 174.06 443.88 L 175.68 442.47 L 177.30 441.05 L 178.92 439.60 L 180.54 438.14 L 182.16 436.67 L 183.78 435.17 L 185.40 433.66 L 187.02 432.13 L 188.64 430.59 L 190.26 429.02 L 191.88 427.44 L 193.50 425.84 L 195.12 424.23 L 196.74 422.59 L 198.36 420.94 L 199.98 419.27 L 201.60 417.58 L 203.22 415.88 L 204.84 414.76 L 206.46 413.62 L 208.08 412.46 L 209.70 411.28 L 211.32 410.08 L 212.94 408.87 L 214.56 407.65 L 216.18 406.41 L 217.80 405.16 L 219.42 403.90 L 221.04 402.62 L 222.66 401.34 L 224.28 400.04 L 225.90 398.73 L 227.52 397.41 L 229.14 396.09 L 230.76 394.75 L 232.38 393.39 L 234.00 392.03 L 235.62 390.66 L 237.24 389.28 L 238.86 387.88 L 240.48 386.47 L 242.10 385.06 L 243.72 383.63 L 245.34 382.19 L 246.96 380.74 L 248.58 379.27 L 250.20 377.80 L 251.82 376.31 L 253.44 374.81 L 255.06 373.29 L 256.68 371.77 L 258.30 370.23 L 259.92 368.68 L 261.54 367.12 L 263.16 365.54 L 264.78 363.96 L 266.40 362.36 L 268.02 360.75 L 269.64 359.14 L 271.26 357.51 L 272.88 355.87 L 274.50 354.21 L 276.12 352.55 L 277.74 350.88 L 279.36 349.20 L 280.98 347.51 L 282.60 345.82 L 284.22 344.13 L 285.84 342.42 L 287.46 340.72 L 289.08 339.00 L 290.70 337.27 L 292.32 335.54 L 293.94 333.79 L 295.56 332.03 L 297.18 330.26 L 298.80 328.49 L 300.42 326.70 L 302.04 324.91 L 303.66 323.11 L 305.28 321.30 L 306.90 319.48 L 308.52 317.67 L 310.14 315.85 L 311.76 314.03 L 313.38 312.20 L 315.00 310.37 L 316.62 308.53 L 318.24 306.68 L 319.86 304.82 L 321.48 302.96 L 323.10 301.09 L 324.72 299.20 L 326.34 297.31 L 327.96 295.41 L 329.58 293.50 L 331.20 291.58 L 332.82 289.64 L 334.44 287.69 L 336.06 285.73 L 337.68 283.75 L 339.30 281.76 L 340.92 279.75 L 342.54 277.73 L 344.16 275.68 L 345.78 273.63 L 347.40 271.55 L 349.02 269.45 L 350.64 267.32 L 352.26 265.17 L 353.88 263.00 L 355.50 260.80 L 357.12 258.57 L 358.74 256.31 L 360.36 254.03 L 361.98 251.72 L 363.60 249.37 L 365.22 247.00 L 366.84 244.60 L 368.46 242.17 L 370.08 239.72 L 371.70 237.24 L 373.32 234.73 L 374.94 232.19 L 376.56 229.62 L 378.18 227.02 L 379.80 224.39 L 381.42 221.73 L 383.04 219.04 L 384.66 216.33 L 386.28 213.61 L 387.90 210.89 L 389.52 208.17 L 391.14 205.45 L 392.76 202.73 L 394.38 200.01 L 396.00 197.28 L 397.62 194.54 L 399.24 191.80 L 400.86 189.04 L 402.48 186.26 L 404.10 183.47 L 405.72 180.65 L 407.34 177.82 L 408.96 174.96 L 410.58 172.09 L 412.20 169.19 L 413.82 166.28 L 415.44 163.35 L 417.06 160.41 L 418.68 157.46 L 420.30 154.52 L 421.92 151.56 L 423.54 148.61 L 425.16 145.66 L 426.78 142.71 L 428.40 139.75 L 430.02 136.80 L 431.64 133.85 L 433.26 130.91 L 434.88 127.99 L 436.50 125.07 L 438.12 122.17 L 439.74 119.25 L 441.36 116.34 L 442.98 113.42 L 444.60 110.50 L 446.22 107.56 L 447.84 104.62 L 449.46 101.66 L 451.08 98.69 L 452.70 95.70 L 454.32 92.71 L 455.94 89.70 L 457.56 86.68 L 459.18 83.64 L 460.80 80.59 L 462.42 77.53 L 464.04 74.45 L 465.66 71.36 L 467.28 68.25 L 468.90 65.13 L 470.52 62.00 L 472.14 58.86 L 473.76 55.70 L 475.38 52.53 L 477.00 49.34 L 478.62 48.18 L 480.24 48.10 L 481.86 48.03 L 483.48 48.00 L 485.10 48.01 L 486.72 48.09 L 488.34 48.24 L 489.96 48.46 L 491.58 49.44 L 493.20 53.22 L 494.82 57.13 L 496.44 61.23 L 498.06 65.49 L 499.68 69.88 L 501.30 74.41 L 502.92 79.09 L 504.54 83.92 L 506.16 113.21 L 507.78 159.43 L 509.40 199.38 L 511.02 233.96 L 512.64 263.85 L 514.26 289.58 L 515.88 311.62 L 517.50 330.60 L 519.12 347.49 L 520.74 363.20 L 522.36 377.74 L 523.98 391.18 L 525.60 403.80 L 527.22 415.43 L 528.84 426.06 L 530.46 435.74 L 532.08 444.55 L 533.70 452.48 L 535.32 459.62 L 536.94 466.05 L 538.56 471.86 L 540.18 477.13 L 541.80 481.91 L 543.42 486.25 L 545.04 490.20 L 546.66 493.80 L 548.28 497.09 L 549.90 500.11 L 551.52 502.88 L 553.14 505.43 L 554.76 507.78 L 556.38 509.98 L 558.00 512.04 L 559.62 513.97 L 561.24 515.77 L 562.86 517.47 L 564.48 519.06 L 566.10 520.56 L 567.72 521.97 L 569.34 523.30 L 570.96 524.55 L 572.58 525.73 L 574.20 526.85 L 575.82 527.90 L 577.44 528.90 L 579.06 529.84 L 580.68 530.73 L 582.30 531.58 L 583.92 532.38 L 585.54 533.15 L 587.16 533.88 L 588.78 534.58 L 590.40 535.24 L 592.02 535.88 L 593.64 536.48 L 595.26 537.05 L 596.88 537.60 L 598.50 538.12 L 600.12 538.63 L 601.74 539.12 L 603.36 539.62 L 604.98 540.12 L 606.60 540.62 L 608.22 541.12 L 609.84 541.60 L 611.46 542.07 L 613.08 542.52 L 614.70 542.95 L 616.32 543.37 L 617.94 543.77 L 619.56 544.15 L 621.18 544.52 L 622.80 544.90 L 624.42 545.28 L 626.04 545.65 L 627.66 545.99 L 629.28 546.29 L 630.90 546.57 L 632.52 546.84 L 634.14 547.08 L 635.76 547.31 L 637.38 547.53 L 639.00 547.74 L 640.62 547.93 L 642.24 548.12 L 643.86 548.30 L 645.48 548.48 L 647.10 548.64 L 648.72 548.80 L 650.34 548.95 L 651.96 549.09 L 653.58 549.23 L 655.20 549.37 L 656.82 549.50 L 658.44 549.62 L 660.06 549.74 L 661.68 549.85 L 663.30 549.96 L 664.92 550.07 L 666.54 550.17 L 668.16 550.27 L 669.78 550.36 L 671.40 550.45 L 673.02 550.53 L 674.64 550.62 L 676.26 550.69 L 677.88 550.77 L 679.50 550.84 L 681.12 550.91 L 682.74 550.98 L 684.36 551.04 L 685.98 551.11 L 687.60 551.17 L 689.22 551.22 L 690.84 551.28 L 692.46 551.33 L 694.08 551.39 L 695.70 551.43 L 697.32 551.48 L 698.94 551.53 L 700.56 551.57 L 702.18 551.62 L 703.80 551.66 L 705.42 551.70 L 707.04 551.74 L 708.66 551.77 L 710.28 551.81 L 711.90 551.84 L 713.52 551.88 L 715.14 551.91 L 716.76 551.94 L 718.38 551.97 L 720.00 552.00" fill="none" stroke="#F44336" stroke-width="3" stroke-linejoin="round" stroke-linecap="round" />
  <path d="M 72.00 315.42 L 73.62 299.36 L 75.24 302.37 L 76.86 303.83 L 78.48 304.37 L 80.10 304.39 L 81.72 304.10 L 83.34 303.63 L 84.96 303.06 L 86.58 302.43 L 88.20 301.77 L 89.82 301.08 L 91.44 300.38 L 93.06 299.67 L 94.68 298.94 L 96.30 298.19 L 97.92 297.42 L 99.54 296.64 L 101.16 295.83 L 102.78 295.00 L 104.40 294.16 L 106.02 293.29 L 107.64 292.41 L 109.26 291.50 L 110.88 290.56 L 112.50 289.61 L 114.12 288.58 L 115.74 287.47 L 117.36 286.32 L 118.98 285.14 L 120.60 283.94 L 122.22 282.73 L 123.84 281.51 L 125.46 280.28 L 127.08 279.04 L 128.70 277.79 L 130.32 276.55 L 131.94 275.29 L 133.56 274.03 L 135.18 272.75 L 136.80 271.45 L 138.42 270.14 L 140.04 268.81 L 141.66 267.47 L 143.28 266.10 L 144.90 264.72 L 146.52 263.32 L 148.14 261.91 L 149.76 260.47 L 151.38 259.01 L 153.00 257.54 L 154.62 256.04 L 156.24 254.53 L 157.86 252.99 L 159.48 251.43 L 161.10 249.86 L 162.72 248.26 L 164.34 246.64 L 165.96 245.01 L 167.58 243.35 L 169.20 241.68 L 170.82 239.98 L 172.44 238.26 L 174.06 236.53 L 175.68 234.77 L 177.30 232.99 L 178.92 231.19 L 180.54 229.37 L 182.16 227.53 L 183.78 225.67 L 185.40 223.79 L 187.02 221.89 L 188.64 219.97 L 190.26 218.02 L 191.88 216.06 L 193.50 214.08 L 195.12 212.07 L 196.74 210.05 L 198.36 208.00 L 199.98 205.94 L 201.60 203.88 L 203.22 201.81 L 204.84 201.69 L 206.46 201.17 L 208.08 200.46 L 209.70 199.66 L 211.32 198.80 L 212.94 197.90 L 214.56 196.97 L 216.18 196.00 L 217.80 195.01 L 219.42 194.00 L 221.04 192.96 L 222.66 191.91 L 224.28 190.83 L 225.90 189.73 L 227.52 188.61 L 229.14 187.47 L 230.76 186.31 L 232.38 185.14 L 234.00 183.95 L 235.62 182.74 L 237.24 181.51 L 238.86 180.27 L 240.48 179.01 L 242.10 177.73 L 243.72 176.45 L 245.34 175.14 L 246.96 173.82 L 248.58 172.25 L 250.20 170.61 L 251.82 168.97 L 253.44 167.34 L 255.06 165.72 L 256.68 164.11 L 258.30 162.53 L 259.92 160.96 L 261.54 159.41 L 263.16 157.86 L 264.78 156.33 L 266.40 154.81 L 268.02 153.31 L 269.64 151.81 L 271.26 150.32 L 272.88 148.84 L 274.50 147.38 L 276.12 145.92 L 277.74 144.48 L 279.36 143.05 L 280.98 141.64 L 282.60 140.25 L 284.22 139.44 L 285.84 138.66 L 287.46 137.49 L 289.08 136.18 L 290.70 134.81 L 292.32 133.42 L 293.94 132.04 L 295.56 130.66 L 297.18 129.29 L 298.80 127.93 L 300.42 126.57 L 302.04 125.22 L 303.66 123.87 L 305.28 122.55 L 306.90 121.29 L 308.52 120.06 L 310.14 118.85 L 311.76 117.65 L 313.38 116.47 L 315.00 115.29 L 316.62 114.10 L 318.24 112.78 L 319.86 111.44 L 321.48 110.12 L 323.10 108.80 L 324.72 107.50 L 326.34 106.21 L 327.96 104.94 L 329.58 103.67 L 331.20 102.42 L 332.82 101.17 L 334.44 99.92 L 336.06 98.68 L 337.68 97.44 L 339.30 96.20 L 340.92 94.96 L 342.54 93.72 L 344.16 92.47 L 345.78 91.23 L 347.40 89.98 L 349.02 88.71 L 350.64 87.43 L 352.26 86.14 L 353.88 84.84 L 355.50 83.52 L 357.12 82.18 L 358.74 80.83 L 360.36 79.46 L 361.98 78.07 L 363.60 76.66 L 365.22 75.22 L 366.84 73.78 L 368.46 72.32 L 370.08 70.69 L 371.70 69.02 L 373.32 67.35 L 374.94 65.69 L 376.56 64.05 L 378.18 62.45 L 379.80 60.92 L 381.42 59.39 L 383.04 58.39 L 384.66 58.70 L 386.28 58.54 L 387.90 58.18 L 389.52 57.75 L 391.14 57.32 L 392.76 56.90 L 394.38 56.50 L 396.00 56.12 L 397.62 55.75 L 399.24 55.40 L 400.86 55.04 L 402.48 54.68 L 404.10 54.32 L 405.72 53.94 L 407.34 53.56 L 408.96 53.17 L 410.58 52.76 L 412.20 52.22 L 413.82 51.65 L 415.44 51.08 L 417.06 50.54 L 418.68 50.06 L 420.30 49.62 L 421.92 49.23 L 423.54 48.89 L 425.16 48.60 L 426.78 48.36 L 428.40 48.16 L 430.02 48.00 L 431.64 48.12 L 433.26 48.88 L 434.88 49.53 L 436.50 50.16 L 438.12 50.79 L 439.74 51.42 L 441.36 52.07 L 442.98 52.75 L 444.60 53.45 L 446.22 54.17 L 447.84 54.90 L 449.46 55.65 L 451.08 56.42 L 452.70 57.18 L 454.32 57.92 L 455.94 58.70 L 457.56 59.52 L 459.18 60.38 L 460.80 61.29 L 462.42 62.24 L 464.04 63.22 L 465.66 64.24 L 467.28 65.30 L 468.90 66.30 L 470.52 67.29 L 472.14 68.29 L 473.76 69.32 L 475.38 70.37 L 477.00 71.46 L 478.62 72.59 L 480.24 73.93 L 481.86 75.50 L 483.48 77.24 L 485.10 79.10 L 486.72 81.07 L 488.34 83.13 L 489.96 85.61 L 491.58 88.78 L 493.20 92.54 L 494.82 97.01 L 496.44 101.33 L 498.06 103.54 L 499.68 107.06 L 501.30 111.71 L 502.92 117.26 L 504.54 123.54 L 506.16 130.37 L 507.78 140.15 L 509.40 153.59 L 511.02 168.97 L 512.64 185.23 L 514.26 201.67 L 515.88 217.84 L 517.50 233.48 L 519.12 248.87 L 520.74 264.46 L 522.36 281.53 L 523.98 299.61 L 525.60 316.66 L 527.22 332.78 L 528.84 347.99 L 530.46 362.57 L 532.08 384.41 L 533.70 403.04 L 535.32 419.39 L 536.94 433.89 L 538.56 446.91 L 540.18 459.08 L 541.80 470.20 L 543.42 479.93 L 545.04 488.54 L 546.66 496.18 L 548.28 502.97 L 549.90 509.18 L 551.52 515.66 L 553.14 521.29 L 554.76 526.22 L 556.38 530.59 L 558.00 534.44 L 559.62 537.84 L 561.24 540.85 L 562.86 543.48 L 564.48 545.73 L 566.10 547.62 L 567.72 549.15 L 569.34 550.35 L 570.96 551.21 L 572.58 551.76 L 574.20 552.00 L 575.82 551.94 L 577.44 551.59 L 579.06 550.94 L 580.68 550.02 L 582.30 548.81 L 583.92 547.31 L 585.54 545.54 L 587.16 543.48 L 588.78 541.14 L 590.40 538.50 L 592.02 535.57 L 593.64 532.47 L 595.26 529.29 L 596.88 526.02 L 598.50 522.64 L 600.12 519.19 L 601.74 515.66 L 603.36 512.05 L 604.98 508.37 L 606.60 504.62 L 608.22 500.82 L 609.84 496.94 L 611.46 492.94 L 613.08 488.85 L 614.70 484.70 L 616.32 480.51 L 617.94 476.28 L 619.56 472.02 L 621.18 467.75 L 622.80 463.47 L 624.42 459.18 L 626.04 454.90 L 627.66 450.62 L 629.28 446.35 L 630.90 442.08 L 632.52 437.82 L 634.14 433.56 L 635.76 429.33 L 637.38 425.13 L 639.00 420.96 L 640.62 416.84 L 642.24 412.76 L 643.86 408.75 L 645.48 404.81 L 647.10 400.91 L 648.72 397.08 L 650.34 393.31 L 651.96 389.60 L 653.58 385.96 L 655.20 382.40 L 656.82 378.90 L 658.44 375.48 L 660.06 372.14 L 661.68 368.88 L 663.30 365.70 L 664.92 362.60 L 666.54 359.56 L 668.16 356.58 L 669.78 353.64 L 671.40 350.77 L 673.02 347.98 L 674.64 345.29 L 676.26 342.68 L 677.88 340.17 L 679.50 337.76 L 681.12 335.43 L 682.74 333.19 L 684.36 331.03 L 685.98 328.96 L 687.60 326.96 L 689.22 325.04 L 690.84 323.21 L 692.46 321.46 L 694.08 319.78 L 695.70 318.18 L 697.32 316.65 L 698.94 315.18 L 700.56 313.78 L 702.18 312.45 L 703.80 311.17 L 705.42 309.95 L 707.04 308.78 L 708.66 307.67 L 710.28 306.61 L 711.90 305.59 L 713.52 304.60 L 715.14 303.66 L 716.76 302.73 L 718.38 301.84 L 720.00 300.96" fill="none" stroke="#FF9800" stroke-width="3" stroke-linejoin="round" stroke-linecap="round" />
  <path d="M 72.00 547.83 L 73.62 548.88 L 75.24 549.69 L 76.86 550.30 L 78.48 550.77 L 80.10 551.12 L 81.72 551.39 L 83.34 551.59 L 84.96 551.74 L 86.58 551.85 L 88.20 551.92 L 89.82 551.97 L 91.44 551.99 L 93.06 552.00 L 94.68 551.99 L 96.30 551.97 L 97.92 551.94 L 99.54 551.90 L 101.16 551.85 L 102.78 551.79 L 104.40 551.72 L 106.02 551.65 L 107.64 551.57 L 109.26 551.48 L 110.88 551.40 L 112.50 551.30 L 114.12 551.20 L 115.74 551.10 L 117.36 551.00 L 118.98 550.89 L 120.60 550.78 L 122.22 550.66 L 123.84 550.55 L 125.46 550.43 L 127.08 550.31 L 128.70 550.18 L 130.32 550.06 L 131.94 549.93 L 133.56 549.81 L 135.18 549.68 L 136.80 549.55 L 138.42 549.42 L 140.04 549.29 L 141.66 549.16 L 143.28 549.02 L 144.90 548.89 L 146.52 548.76 L 148.14 548.62 L 149.76 548.48 L 151.38 548.35 L 153.00 548.21 L 154.62 548.07 L 156.24 547.93 L 157.86 547.79 L 159.48 547.65 L 161.10 547.51 L 162.72 547.37 L 164.34 547.23 L 165.96 547.09 L 167.58 546.94 L 169.20 546.80 L 170.82 546.65 L 172.44 546.51 L 174.06 546.36 L 175.68 546.21 L 177.30 546.06 L 178.92 545.91 L 180.54 545.75 L 182.16 545.60 L 183.78 545.44 L 185.40 545.28 L 187.02 545.12 L 188.64 544.96 L 190.26 544.80 L 191.88 544.64 L 193.50 544.47 L 195.12 544.30 L 196.74 544.13 L 198.36 543.96 L 199.98 543.78 L 201.60 543.61 L 203.22 543.43 L 204.84 543.24 L 206.46 543.06 L 208.08 542.87 L 209.70 542.68 L 211.32 542.49 L 212.94 542.29 L 214.56 542.10 L 216.18 541.90 L 217.80 541.69 L 219.42 541.48 L 221.04 541.27 L 222.66 541.06 L 224.28 540.84 L 225.90 540.62 L 227.52 540.40 L 229.14 540.17 L 230.76 539.94 L 232.38 539.70 L 234.00 539.46 L 235.62 539.22 L 237.24 538.97 L 238.86 538.72 L 240.48 538.46 L 242.10 538.20 L 243.72 537.94 L 245.34 537.67 L 246.96 537.39 L 248.58 537.11 L 250.20 536.83 L 251.82 536.54 L 253.44 536.25 L 255.06 535.95 L 256.68 535.64 L 258.30 535.34 L 259.92 535.02 L 261.54 534.70 L 263.16 534.38 L 264.78 534.05 L 266.40 533.71 L 268.02 533.37 L 269.64 533.02 L 271.26 532.67 L 272.88 532.31 L 274.50 531.95 L 276.12 531.58 L 277.74 531.20 L 279.36 530.82 L 280.98 530.43 L 282.60 530.03 L 284.22 529.63 L 285.84 529.22 L 287.46 528.81 L 289.08 528.38 L 290.70 527.95 L 292.32 527.52 L 293.94 527.07 L 295.56 526.62 L 297.18 526.17 L 298.80 525.70 L 300.42 525.23 L 302.04 524.75 L 303.66 524.26 L 305.28 523.75 L 306.90 523.24 L 308.52 522.71 L 310.14 522.17 L 311.76 521.62 L 313.38 521.06 L 315.00 520.49 L 316.62 519.91 L 318.24 519.31 L 319.86 518.70 L 321.48 518.08 L 323.10 517.45 L 324.72 516.81 L 326.34 516.14 L 327.96 515.47 L 329.58 514.78 L 331.20 514.07 L 332.82 513.35 L 334.44 512.61 L 336.06 511.85 L 337.68 511.08 L 339.30 510.28 L 340.92 509.47 L 342.54 508.64 L 344.16 507.78 L 345.78 506.91 L 347.40 506.02 L 349.02 505.10 L 350.64 504.16 L 352.26 503.20 L 353.88 502.22 L 355.50 501.22 L 357.12 500.19 L 358.74 499.13 L 360.36 498.06 L 361.98 496.96 L 363.60 495.83 L 365.22 494.68 L 366.84 493.50 L 368.46 492.30 L 370.08 491.07 L 371.70 489.81 L 373.32 488.53 L 374.94 487.22 L 376.56 485.88 L 378.18 484.51 L 379.80 483.11 L 381.42 481.69 L 383.04 480.23 L 384.66 478.75 L 386.28 477.23 L 387.90 475.68 L 389.52 474.11 L 391.14 472.50 L 392.76 470.86 L 394.38 469.18 L 396.00 467.47 L 397.62 465.73 L 399.24 463.95 L 400.86 462.14 L 402.48 460.29 L 404.10 458.40 L 405.72 456.47 L 407.34 454.50 L 408.96 452.49 L 410.58 450.43 L 412.20 448.33 L 413.82 446.18 L 415.44 443.99 L 417.06 441.75 L 418.68 439.46 L 420.30 437.11 L 421.92 434.72 L 423.54 432.27 L 425.16 429.76 L 426.78 427.20 L 428.40 424.57 L 430.02 421.89 L 431.64 419.15 L 433.26 416.34 L 434.88 413.47 L 436.50 410.54 L 438.12 407.53 L 439.74 404.46 L 441.36 401.32 L 442.98 398.11 L 444.60 394.82 L 446.22 391.47 L 447.84 388.03 L 449.46 384.52 L 451.08 380.93 L 452.70 377.26 L 454.32 373.51 L 455.94 369.67 L 457.56 365.75 L 459.18 361.74 L 460.80 357.64 L 462.42 353.44 L 464.04 349.16 L 465.66 344.78 L 467.28 340.30 L 468.90 335.72 L 470.52 331.04 L 472.14 326.25 L 473.76 321.36 L 475.38 316.36 L 477.00 311.24 L 478.62 306.02 L 480.24 300.68 L 481.86 295.22 L 483.48 289.63 L 485.10 283.93 L 486.72 278.10 L 488.34 272.14 L 489.96 266.06 L 491.58 259.84 L 493.20 253.49 L 494.82 247.02 L 496.44 240.41 L 498.06 233.67 L 499.68 226.81 L 501.30 219.83 L 502.92 212.72 L 504.54 205.50 L 506.16 198.17 L 507.78 190.72 L 509.40 183.18 L 511.02 175.54 L 512.64 167.81 L 514.26 159.99 L 515.88 152.12 L 517.50 144.20 L 519.12 136.26 L 520.74 128.36 L 522.36 120.53 L 523.98 112.81 L 525.60 105.28 L 527.22 97.97 L 528.84 90.95 L 530.46 84.28 L 532.08 78.02 L 533.70 72.21 L 535.32 66.92 L 536.94 62.20 L 538.56 58.08 L 540.18 54.62 L 541.80 51.85 L 543.42 49.81 L 545.04 48.52 L 546.66 48.00 L 548.28 48.27 L 549.90 49.35 L 551.52 51.22 L 553.14 53.91 L 554.76 57.39 L 556.38 61.66 L 558.00 66.70 L 559.62 72.48 L 561.24 78.99 L 562.86 86.18 L 564.48 94.03 L 566.10 102.49 L 567.72 111.52 L 569.34 121.07 L 570.96 131.10 L 572.58 141.56 L 574.20 152.39 L 575.82 163.54 L 577.44 174.96 L 579.06 186.59 L 580.68 198.38 L 582.30 210.28 L 583.92 222.24 L 585.54 234.20 L 587.16 246.13 L 588.78 257.96 L 590.40 269.67 L 592.02 281.22 L 593.64 292.56 L 595.26 303.67 L 596.88 314.52 L 598.50 325.08 L 600.12 335.34 L 601.74 345.28 L 603.36 354.89 L 604.98 364.15 L 606.60 373.07 L 608.22 381.64 L 609.84 389.85 L 611.46 397.72 L 613.08 405.24 L 614.70 412.43 L 616.32 419.29 L 617.94 425.82 L 619.56 432.05 L 621.18 437.98 L 622.80 443.61 L 624.42 448.98 L 626.04 454.08 L 627.66 458.93 L 629.28 463.54 L 630.90 467.92 L 632.52 472.08 L 634.14 476.03 L 635.76 479.79 L 637.38 483.37 L 639.00 486.76 L 640.62 489.99 L 642.24 493.06 L 643.86 495.98 L 645.48 498.76 L 647.10 501.40 L 648.72 503.92 L 650.34 506.31 L 651.96 508.58 L 653.58 510.75 L 655.20 512.81 L 656.82 514.77 L 658.44 516.64 L 660.06 518.42 L 661.68 520.11 L 663.30 521.72 L 664.92 523.25 L 666.54 524.71 L 668.16 526.10 L 669.78 527.42 L 671.40 528.66 L 673.02 529.84 L 674.64 530.95 L 676.26 532.01 L 677.88 533.02 L 679.50 533.98 L 681.12 534.89 L 682.74 535.76 L 684.36 536.59 L 685.98 537.39 L 687.60 538.14 L 689.22 538.86 L 690.84 539.55 L 692.46 540.20 L 694.08 540.83 L 695.70 541.42 L 697.32 541.99 L 698.94 542.53 L 700.56 543.04 L 702.18 543.53 L 703.80 544.00 L 705.42 544.45 L 707.04 544.87 L 708.66 545.27 L 710.28 545.66 L 711.90 546.02 L 713.52 546.37 L 715.14 546.70 L 716.76 547.02 L 718.38 547.32 L 720.00 547.60" fill="none" stroke="#9C27B0" stroke-width="3" stroke-linejoin="round" stroke-linecap="round" />
  <rect x="740" y="36" width="14" height="14" fill="#2196F3" rx="3" />
  <text x="762" y="48" font-size="14" fill="#1f2937">Population</text>
  <rect x="740" y="60" width="14" height="14" fill="#4CAF50" rx="3" />
  <text x="762" y="72" font-size="14" fill="#1f2937">Resources</text>
  <rect x="740" y="84" width="14" height="14" fill="#F44336" rx="3" />
  <text x="762" y="96" font-size="14" fill="#1f2937">Industrial output/cap</text>
  <rect x="740" y="108" width="14" height="14" fill="#FF9800" rx="3" />
  <text x="762" y="120" font-size="14" fill="#1f2937">Food/capita</text>
  <rect x="740" y="132" width="14" height="14" fill="#9C27B0" rx="3" />
  <text x="762" y="144" font-size="14" fill="#1f2937">Pollution index</text>
  <text x="500" y="596" text-anchor="middle" font-size="13" fill="#6b7280">Year</text>
  <text x="20" y="300" text-anchor="middle" font-size="13" fill="#6b7280" transform="rotate(-90 20 300)">Normalized value</text>
</svg>